<?xml version="1.0" standalone="no"?>
<!DOCTYPE svg PUBLIC "-//W3C//DTD SVG 20010904//EN"
 "http://www.w3.org/TR/2001/REC-SVG-20010904/DTD/svg10.dtd">
<svg version="1.1" xmlns="http://www.w3.org/2000/svg"
 width="1024.000000pt" height="1024.000000pt" viewBox="0 0 1024.000000 1024.000000"
 preserveAspectRatio="xMidYMid meet">

<g transform="translate(0.000000,1024.000000) scale(0.100000,-0.100000)" stroke="none" fill="#273A2E">
<rect width="10240" height="10240" fill="white" />
<!-- circulo borde negro sin relleno centrado de radio 100 -->
<circle cx="5120" cy="5120" r="2760" stroke="lightgray" stroke-width="40" fill="none"/>
<circle fill="white" cx="5122.5" cy="7760" r="780"/>
<path fill="#273A2E" d="M5001 8628 c-366 -46 -668 -325 -743 -687 -24 -114 -20 -295 7 -401
73 -277 283 -510 543 -604 546 -196 1116 153 1193 729 38 289 -91 603 -322
781 -125 96 -293 164 -454 183 -101 12 -120 12 -224 -1z m354 -138 c129 -41
222 -97 316 -190 166 -164 239 -351 226 -575 -8 -121 -27 -196 -74 -293 -129
-263 -368 -424 -653 -439 -128 -7 -225 7 -331 48 -219 85 -379 255 -459 489
-34 100 -40 298 -11 410 71 280 273 486 551 560 105 28 332 23 435 -10z"/>
<path fill="#273A2E" d="M5087 8348 c-11 -9 -17 -31 -19 -71 l-3 -59 -162 1 c-88 1 -173 -1
-188 -5 -33 -8 -48 -44 -35 -80 9 -22 -3 -56 -80 -234 -71 -164 -89 -215 -84
-236 10 -40 82 -107 130 -122 50 -15 136 -16 187 -1 62 17 137 95 137 144 0 8
-41 108 -90 222 -50 113 -89 207 -88 209 2 1 64 4 138 5 l135 3 3 -362 2 -362
-42 0 c-62 0 -118 -35 -146 -90 -12 -25 -21 -54 -20 -65 3 -19 11 -20 253 -20
l250 0 3 22 c9 65 -93 159 -163 151 l-35 -4 0 366 0 365 131 -2 c72 -1 133 -4
135 -6 3 -2 -34 -93 -81 -202 -48 -111 -85 -212 -85 -230 0 -47 38 -95 99
-127 89 -47 219 -36 292 24 27 22 59 81 59 108 0 14 -40 116 -89 225 -52 117
-85 204 -80 210 14 15 10 62 -7 79 -13 13 -45 16 -195 16 l-179 0 0 53 c0 74
-38 108 -83 75z m-273 -498 l55 -125 -121 -3 c-66 -1 -123 0 -126 3 -3 2 13
46 36 97 22 51 50 116 62 143 19 44 23 47 31 30 5 -11 33 -76 63 -145z m739
35 c83 -185 90 -165 -57 -165 -69 0 -126 4 -126 9 0 10 91 226 110 262 7 11
13 19 15 17 2 -2 28 -57 58 -123z"/>
<circle fill="white" cx="3122.5" cy="7160" r="780"/>
<path fill="#273A2E" d="M3020 8014 c-124 -15 -284 -75 -387 -145 -70 -48 -159 -135 -209
-206 -303 -423 -168 -1018 285 -1257 233 -122 513 -132 747 -26 212 96 386
296 462 530 170 524 -214 1076 -769 1103 -52 3 -110 3 -129 1z m281 -135 c130
-36 223 -92 330 -199 80 -79 103 -110 141 -187 63 -126 82 -214 76 -361 -4
-93 -11 -134 -33 -200 -75 -221 -255 -404 -470 -478 -114 -39 -294 -46 -416
-15 -215 53 -392 197 -489 396 -53 108 -73 197 -73 325 -1 130 19 212 81 340
38 79 61 110 132 181 121 123 258 193 423 220 76 11 213 2 298 -22z"/>
<path fill="#273A2E" d="M3034 7678 c-76 -66 -404 -371 -453 -421 -35 -37 -42 -50 -37 -70 5
-20 14 -26 43 -31 21 -3 51 -4 66 -3 l29 2 -2 -181 c0 -99 4 -192 9 -206 6
-15 23 -30 42 -37 34 -12 206 -15 233 -5 14 5 16 32 16 190 l0 185 128 -3 127
-3 5 -185 5 -185 112 -3 c134 -3 168 9 178 61 3 17 5 107 3 200 l-4 167 54 0
c102 0 117 33 50 107 -81 87 -520 463 -541 463 -8 0 -36 -19 -63 -42z"/>
<circle fill="white" cx="7122.5" cy="7160" r="780"/>
<path fill="#273A2E" d="M7041 8008 c-343 -34 -642 -292 -732 -633 -27 -105 -30 -296 -4 -404
60 -257 222 -460 458 -576 374 -183 799 -80 1047 255 58 79 123 210 147 300
26 93 25 328 -1 425 -57 214 -195 402 -379 515 -93 57 -237 108 -330 116 -34
2 -75 6 -92 8 -16 1 -68 -1 -114 -6z m324 -142 c117 -40 209 -98 302 -191 66
-67 90 -100 127 -176 61 -125 80 -208 80 -344 -1 -322 -196 -593 -509 -702
-74 -26 -92 -28 -230 -28 -158 0 -222 13 -329 67 -140 70 -275 206 -341 343
-57 117 -78 204 -77 330 1 188 67 354 195 491 112 120 221 185 376 225 114 28
297 22 406 -15z"/>
<path fill="#273A2E" d="M6935 7607 c-279 -175 -307 -195 -303 -220 l3 -22 500 0 500 0 3 22
c3 19 -12 33 -85 80 -191 123 -408 253 -422 253 -9 0 -97 -51 -196 -113z"/>
<path fill="#273A2E" d="M6716 7254 c-3 -9 -6 -80 -6 -159 0 -161 2 -166 69 -163 35 1 44 6
52 24 8 22 3 275 -6 302 -7 19 -101 16 -109 -4z"/>
<path fill="#273A2E" d="M6961 7251 c-16 -29 -14 -296 2 -307 6 -5 32 -9 57 -9 l45 0 0 165 0
165 -47 3 c-38 2 -49 -1 -57 -17z"/>
<path fill="#273A2E" d="M7197 7264 c-9 -10 -9 -324 1 -325 11 -1 75 -1 95 0 16 1 17 14 15
164 l-3 162 -50 3 c-28 2 -54 0 -58 -4z"/>
<path fill="#273A2E" d="M7432 7258 c-8 -8 -12 -58 -12 -158 0 -161 3 -170 58 -170 70 0 72 4
72 165 0 79 -3 150 -6 159 -7 19 -94 22 -112 4z"/>
<path fill="#273A2E" d="M6640 6850 c-7 -4 -14 -63 -11 -97 1 -10 108 -13 500 -13 l499 0 4
40 c7 78 49 71 -496 73 -268 1 -492 0 -496 -3z"/>
<path d="M1636 6408 c-20 -31 -78 -227 -110 -368 -55 -248 -80 -460 -91 -770
-8 -217 7 -502 28 -534 13 -19 68 -36 374 -114 638 -163 1168 -285 1199 -278
28 7 93 66 131 120 l20 30 73 -16 c44 -10 81 -13 94 -8 41 16 70 61 101 158
l31 97 40 -3 c52 -5 144 -38 166 -60 16 -16 16 -20 -4 -77 -14 -43 -18 -73
-14 -105 12 -90 90 -166 183 -177 50 -5 51 -6 57 -45 9 -54 28 -89 70 -126 41
-36 105 -56 157 -49 35 5 36 4 48 -41 29 -110 150 -164 279 -126 18 5 22 2 22
-14 0 -25 52 -88 89 -107 98 -50 215 -12 282 94 l15 23 52 -26 c176 -89 301
-102 394 -41 21 14 46 40 54 58 15 32 16 32 78 29 99 -5 163 35 205 128 l20
45 63 -3 c82 -5 137 17 184 71 19 23 41 62 48 87 l13 45 50 -3 c135 -9 237 78
258 219 l7 46 95 12 c53 7 101 15 108 17 7 3 19 -14 29 -40 25 -65 72 -125
111 -142 29 -12 46 -11 146 7 l114 21 14 -24 c32 -50 119 -127 153 -133 30 -6
107 8 283 50 33 8 206 49 385 90 640 150 990 242 1018 270 38 35 65 549 43
809 -29 348 -163 916 -216 916 -7 0 -181 -52 -386 -115 -574 -178 -887 -260
-1282 -339 -187 -38 -190 -38 -222 -66 -12 -11 -73 -28 -154 -44 -139 -27
-161 -36 -161 -66 0 -15 -18 -21 -116 -35 -110 -17 -118 -17 -143 -1 -101 67
-734 332 -851 357 -68 15 -121 7 -220 -32 l-79 -31 -88 22 c-56 14 -102 20
-128 16 -23 -3 -224 -71 -446 -151 -258 -93 -424 -148 -459 -152 -49 -5 -64
-1 -116 25 -34 17 -98 40 -144 52 -46 11 -95 27 -107 36 -13 8 -65 24 -116 35
-357 78 -688 172 -1333 380 -203 65 -373 119 -377 119 -4 0 -13 -10 -21 -22z
m3899 -511 c373 -150 564 -240 591 -281 37 -58 121 -418 145 -625 12 -105 8
-268 -6 -291 -5 -8 -50 30 -139 117 -272 268 -387 367 -616 532 -63 45 -148
110 -189 144 -114 96 -93 92 -303 56 -100 -17 -194 -37 -208 -44 -14 -7 -65
-56 -113 -109 -101 -109 -141 -136 -247 -165 -98 -28 -176 -28 -190 -2 -18 34
-11 52 45 118 66 77 92 121 136 228 55 132 79 150 379 284 331 148 344 152
405 147 32 -3 143 -42 310 -109z m-735 76 c0 -5 -21 -17 -48 -27 -26 -10 -97
-42 -158 -71 -135 -63 -179 -104 -229 -212 -20 -43 -48 -101 -61 -129 -13 -28
-51 -81 -84 -119 -66 -75 -85 -118 -77 -178 6 -44 29 -80 70 -111 63 -47 244
-24 394 49 71 35 96 58 220 204 28 32 34 34 188 61 l159 28 71 -57 c38 -32
140 -109 225 -171 211 -153 292 -223 522 -450 197 -194 198 -195 198 -238 0
-109 -91 -172 -183 -127 -18 9 -66 45 -107 81 -357 314 -539 464 -564 464 -32
0 -60 -33 -52 -62 3 -13 51 -61 108 -108 101 -83 377 -324 451 -393 41 -39 47
-73 23 -132 -15 -35 -67 -75 -97 -75 -39 0 -153 73 -393 255 -161 121 -269
195 -283 195 -13 0 -29 -10 -39 -26 -16 -24 -16 -27 3 -52 21 -29 31 -37 323
-258 195 -148 203 -158 179 -215 -17 -42 -46 -59 -101 -59 -60 0 -145 44 -363
188 -194 128 -232 146 -294 140 l-46 -4 -25 50 c-40 80 -134 129 -211 109 -36
-10 -37 -9 -48 27 -16 56 -74 116 -128 134 -57 19 -95 20 -148 1 -28 -10 -41
-11 -44 -3 -2 6 -19 28 -38 49 -68 75 -189 89 -281 32 l-47 -29 -33 23 c-45
30 -129 61 -190 69 l-50 6 39 147 c22 80 71 271 111 423 l71 277 76 -6 c87 -6
69 -11 441 124 301 110 510 181 533 182 9 1 17 -2 17 -6z m-1279 -188 c56 -13
104 -27 107 -30 11 -10 -94 -437 -228 -926 -75 -275 -74 -271 -102 -264 -13 3
-66 14 -118 25 -52 12 -96 23 -98 25 -6 6 151 625 214 845 47 166 110 350 119
350 2 0 50 -11 106 -25z m3279 -57 c76 -170 159 -471 204 -735 24 -146 53
-419 45 -428 -5 -5 -239 -45 -263 -45 -13 0 -16 11 -16 53 0 212 -100 723
-201 1027 -22 69 -42 131 -42 139 -2 10 29 20 108 37 61 12 115 23 121 23 6 1
26 -32 44 -71z m-317 -210 c83 -276 144 -555 154 -708 l6 -86 -129 -17 c-71
-10 -131 -17 -134 -17 -3 0 -3 55 -2 122 4 139 -8 260 -43 433 -21 104 -80
325 -100 376 -5 14 8 19 82 31 48 9 95 16 104 17 12 1 27 -35 62 -151z m-4133
-683 c59 -31 69 -107 21 -156 -38 -38 -87 -39 -129 -4 -95 80 -2 217 108 160z
m301 -84 c49 -49 38 -125 -23 -157 -42 -22 -90 -11 -122 27 -80 95 57 217 145
130z m5179 -6 c57 -29 68 -102 24 -154 -47 -56 -141 -36 -164 35 -29 88 57
162 140 119z m-281 -50 c60 -30 64 -114 8 -161 -63 -53 -157 -8 -157 74 1 78
78 124 149 87z m-3539 -10 c76 -39 66 -116 -27 -216 -59 -63 -100 -77 -151
-52 -73 36 -75 126 -4 205 68 76 122 94 182 63z m329 -121 c32 -27 48 -76 37
-119 -6 -25 -128 -176 -185 -230 -44 -41 -98 -41 -140 -1 -59 56 -48 108 44
215 25 29 59 73 76 97 36 52 53 63 101 64 25 0 46 -8 67 -26z m282 -173 c33
-33 38 -78 14 -124 -17 -33 -122 -165 -179 -224 -31 -33 -48 -43 -72 -43 -66
0 -123 85 -97 143 14 31 189 243 216 262 36 25 84 19 118 -14z m241 -148 c32
-29 23 -82 -33 -192 -63 -124 -106 -171 -155 -171 -42 0 -84 37 -84 73 0 55
47 140 147 265 29 35 40 42 70 42 20 0 45 -7 55 -17z m259 -162 c178 -114 171
-108 157 -131 -18 -28 -62 -43 -109 -37 -46 6 -185 61 -217 86 l-21 16 24 55
c13 30 24 63 25 73 0 9 4 17 8 17 5 0 64 -36 133 -79z"/>
<circle fill="white" cx="7355" cy="3330" r="780"/>
<path fill="#273A2E" d="M2243 4816 c-22 -19 -28 -32 -28 -66 0 -73 67 -110 134 -75 29 14 41
40 41 85 -1 69 -91 104 -147 56z m102 -21 c14 -13 25 -33 25 -45 0 -24 -42
-70 -63 -70 -22 0 -67 40 -66 58 0 13 3 11 9 -5 19 -46 79 -53 101 -11 35 66
-62 116 -100 50 -6 -9 -11 -12 -11 -5 0 15 48 53 67 53 8 0 25 -11 38 -25z"/>
<path fill="#273A2E" d="M2518 4740 c-26 -27 -30 -36 -25 -67 8 -47 33 -72 80 -80 31 -5 40
-1 67 25 40 40 42 92 4 127 -39 36 -87 34 -126 -5z m106 -11 c14 -11 26 -29
26 -40 0 -55 -55 -91 -96 -64 -38 25 -47 50 -30 84 24 46 58 53 100 20z"/>
<circle fill="white" cx="5105" cy="2530" r="780"/>
<path fill="#273A2E" d="M2541 4714 c-27 -34 -26 -40 4 -69 29 -30 35 -31 69 -4 31 24 33 52
6 79 -27 27 -55 25 -79 -6z"/>
<path fill="#273A2E" d="M7738 4735 c-33 -18 -52 -72 -39 -108 34 -89 171 -68 171 27 0 48 -8
65 -41 81 -35 18 -56 18 -91 0z m97 -38 c8 -12 15 -30 15 -41 0 -28 -39 -66
-67 -66 -52 0 -84 78 -45 112 35 31 73 29 97 -5z"/>
<circle fill="white" cx="2875" cy="3330" r="780"/>
<path fill="#273A2E" d="M7759 4706 c-30 -14 -38 -66 -14 -90 48 -48 125 23 83 76 -19 23 -42
28 -69 14z"/>
<path fill="#273A2E" d="M7439 4671 c-82 -83 29 -203 118 -127 22 19 28 32 28 66 0 82 -88
119 -146 61z m92 -4 c9 -7 21 -22 28 -35 10 -19 10 -28 -4 -48 -25 -39 -59
-50 -89 -30 -34 22 -43 59 -22 91 9 14 21 25 26 25 6 0 1 -9 -10 -20 -11 -11
-20 -29 -20 -40 0 -21 33 -60 51 -60 19 0 48 20 59 41 14 25 -9 65 -43 79 -12
5 -15 9 -7 9 8 0 22 -5 31 -12z"/>
<path fill="#273A2E" d="M2728 4120 c-341 -62 -595 -313 -664 -654 -23 -110 -15 -304 16 -401
92 -289 302 -491 585 -566 110 -28 288 -28 400 0 133 34 251 99 349 192 180
170 266 368 266 610 0 381 -263 716 -632 804 -77 18 -256 27 -320 15z m307
-124 c82 -22 209 -86 270 -137 119 -99 215 -249 249 -390 23 -93 21 -256 -3
-351 -81 -315 -362 -532 -691 -532 -130 0 -189 13 -310 71 -81 39 -107 58
-185 137 -139 140 -202 279 -212 471 -20 362 229 681 581 745 69 12 227 5 301
-14z"/>
<path fill="#273A2E" d="M2743 3826 c-183 -45 -343 -208 -388 -397 -20 -86 -19 -161 4 -251
28 -109 64 -174 140 -249 104 -104 218 -149 375 -149 387 1 632 415 454 770
-45 89 -153 196 -238 237 -110 53 -233 66 -347 39z m196 -181 c16 -33 31 -72
35 -87 l6 -28 -116 0 -116 0 7 28 c12 49 56 136 82 164 l27 28 23 -22 c13 -13
37 -50 52 -83z m-244 9 c-14 -32 -27 -74 -31 -91 l-6 -33 -79 0 c-78 0 -79 0
-68 21 20 37 95 106 150 138 29 16 54 29 56 28 1 -2 -9 -30 -22 -63z m367 40
c36 -19 121 -96 150 -136 l19 -28 -79 0 -79 0 -25 73 c-13 39 -28 80 -32 90
-10 22 5 22 46 1z m-426 -379 l-1 -125 -92 0 -92 0 -7 46 c-7 48 0 176 11 194
3 6 46 10 94 10 l88 0 -1 -125z m362 3 l-3 -123 -131 -3 -131 -3 -6 56 c-3 31
-3 88 0 126 l6 69 134 0 134 0 -3 -122z m276 113 c12 -18 18 -130 12 -185 l-7
-56 -95 0 -94 0 0 125 0 125 89 0 c50 0 92 -4 95 -9z m-614 -354 c1 -12 14
-56 30 -96 16 -41 28 -77 26 -79 -8 -7 -88 40 -128 76 -23 20 -54 55 -70 77
l-30 40 79 5 c43 3 81 4 86 2 4 -2 7 -13 7 -25z m304 -29 c-19 -62 -59 -141
-85 -164 -18 -16 -20 -16 -39 1 -24 22 -64 102 -84 168 l-14 47 118 0 119 0
-15 -52z m265 30 c-33 -62 -173 -178 -216 -178 -8 0 -3 19 12 55 14 30 30 75
36 100 l11 45 85 0 c83 0 84 0 72 -22z"/>
<path fill="#273A2E" d="M7245 4120 c-321 -57 -565 -278 -661 -595 -36 -121 -39 -308 -5 -430
101 -372 413 -615 791 -617 149 -1 236 19 370 85 93 45 116 62 206 152 90 89
107 111 153 205 71 144 92 235 93 385 0 90 -6 140 -21 200 -78 297 -289 512
-584 596 -82 23 -263 33 -342 19z m280 -115 c39 -8 111 -35 160 -59 156 -78
253 -175 331 -331 100 -202 100 -421 -1 -630 -73 -151 -174 -253 -320 -325
-144 -71 -293 -94 -441 -67 -259 47 -462 218 -556 468 -27 73 -32 101 -36 207
-3 95 -1 139 13 195 93 385 465 622 850 542z"/>
<path fill="#273A2E" d="M7214 3750 c-11 -4 -33 -22 -47 -40 -22 -26 -27 -42 -27 -86 l0 -54
-109 0 c-140 0 -141 -1 -141 -146 l0 -101 73 -22 c73 -21 192 -40 260 -41 33
0 37 3 37 25 0 35 27 45 128 45 80 0 91 -2 110 -23 12 -13 22 -31 22 -40 0
-12 7 -15 28 -12 15 3 59 9 97 15 39 5 106 20 149 32 l79 23 -2 105 c-3 140
-3 140 -138 140 l-103 0 0 49 c0 54 -29 107 -70 128 -29 15 -312 17 -346 3z
m306 -145 l0 -45 -135 0 -135 0 0 45 0 45 135 0 135 0 0 -45z"/>
<path fill="#273A2E" d="M7324 3256 c-3 -8 -4 -29 -2 -48 l3 -33 60 0 60 0 0 45 0 45 -58 3
c-43 2 -59 -1 -63 -12z"/>
<path fill="#273A2E" d="M6890 3121 c0 -147 13 -198 60 -231 27 -19 45 -20 437 -20 448 0 436
-1 468 60 11 22 15 65 15 173 l0 143 -89 -22 c-49 -13 -128 -26 -175 -30 -72
-6 -86 -10 -86 -24 0 -38 -32 -50 -129 -50 -102 0 -126 8 -135 43 -5 23 -13
25 -113 36 -96 11 -193 30 -238 47 -13 5 -15 -11 -15 -125z"/>
<path fill="#273A2E" d="M5007 3400 c-354 -44 -651 -315 -731 -667 -20 -89 -21 -283 -2 -373
57 -268 248 -508 491 -615 161 -72 356 -92 530 -56 256 52 479 227 595 466 74
151 85 202 85 390 0 140 -3 169 -23 235 -77 244 -262 456 -485 554 -125 56
-320 83 -460 66z m218 -114 c302 -46 543 -258 627 -553 28 -100 31 -275 5
-373 -24 -89 -84 -212 -142 -289 -93 -122 -251 -227 -405 -268 -100 -27 -292
-24 -394 5 -279 80 -488 308 -542 589 -78 410 196 813 604 887 100 18 138 19
247 2z"/>
<path fill="#273A2E" d="M4930 2958 c-91 -78 -219 -195 -284 -259 -140 -136 -143 -149 -41
-149 l65 0 0 -219 c0 -121 3 -227 6 -236 17 -42 44 -45 437 -45 364 0 375 1
401 21 l26 20 0 230 0 229 65 0 c96 0 95 14 -4 114 l-81 81 0 88 c0 109 -8
127 -58 127 -49 0 -65 -12 -66 -49 0 -17 -3 -31 -4 -31 -9 0 -72 50 -165 131
-56 49 -108 89 -117 89 -8 -1 -89 -65 -180 -142z m315 -643 l0 -150 -130 -3
c-113 -2 -131 0 -142 15 -14 18 -19 246 -7 277 6 14 25 16 143 14 l136 -3 0
-150z"/>
</g>
</svg>
