<?xml version="1.0" standalone="no"?>
<!DOCTYPE svg PUBLIC "-//W3C//DTD SVG 20010904//EN"
 "http://www.w3.org/TR/2001/REC-SVG-20010904/DTD/svg10.dtd">
<svg version="1.0" xmlns="http://www.w3.org/2000/svg"
 width="1024.000000pt" height="1024.000000pt" viewBox="0 0 1024.000000 1024.000000"
 preserveAspectRatio="xMidYMid meet">

<g transform="translate(0.000000,1024.000000) scale(0.100000,-0.100000)" stroke="none">
<path fill="#fff" d="M0 5120 l0 -5120 5120 0 5120 0 0 5120 0 5120 -5120 0 -5120 0 0
-5120z m5362 4120 c884 -60 1645 -353 2296 -885 762 -623 1257 -1495 1402
-2467 61 -412 51 -938 -25 -1348 -114 -609 -386 -1194 -789 -1700 -124 -156
-465 -498 -611 -613 -607 -480 -1270 -762 -2035 -864 -195 -26 -747 -26 -940
0 -782 106 -1469 400 -2075 888 -689 555 -1181 1357 -1365 2226 -63 298 -75
424 -75 803 0 277 4 373 18 485 84 643 281 1180 624 1705 361 551 913 1050
1472 1329 678 340 1390 489 2103 441z"/>
<path fill="#273A2E" d="M6144 8119 c-12 -6 -27 -22 -33 -35 -8 -18 -11 -310 -11 -1020 0
-943 1 -995 18 -990 81 25 296 56 390 56 l62 0 0 978 0 979 -21 19 c-19 17
-40 19 -203 21 -112 1 -189 -2 -202 -8z"/>
<path fill="#273A2E" d="M5452 7534 l-22 -15 0 -899 0 -899 64 48 c90 68 237 158 334 203 l82
39 0 749 c0 737 0 750 -20 770 -19 19 -33 20 -218 20 -163 0 -201 -3 -220 -16z"/>
<path fill="#273A2E" d="M4783 7048 c-41 -20 -43 -44 -41 -463 l3 -399 243 -213 242 -213 0
624 c0 599 -1 625 -19 647 -19 24 -23 24 -213 26 -123 1 -201 -2 -215 -9z"/>
<path fill="#273A2E" d="M3456 6898 c-16 -9 -1258 -1082 -1513 -1306 -73 -64 -91 -103 -73
-157 19 -57 48 -69 180 -75 l115 -5 5 -753 5 -754 31 -28 c31 -27 34 -28 205
-35 96 -4 294 -6 440 -4 246 4 269 6 288 23 21 19 21 23 21 566 0 536 0 547
20 568 21 22 25 22 329 22 284 0 309 -1 324 -18 14 -15 17 -51 17 -257 l1
-239 27 34 c232 299 501 452 863 492 l109 12 0 188 0 188 109 0 c119 0 148 7
180 41 29 31 28 97 0 134 -12 15 -133 122 -268 239 -135 117 -475 412 -756
656 -280 243 -523 451 -540 461 -33 21 -90 24 -119 7z"/>
<path fill="#273A2E" d="M6355 5935 c-330 -45 -619 -195 -856 -442 -109 -114 -179 -212 -242
-338 -54 -109 -101 -236 -90 -246 4 -4 35 -18 69 -32 l61 -24 42 107 c170 432
550 739 1010 815 169 29 517 6 569 -37 19 -17 14 -57 -11 -81 -13 -12 -29 -32
-36 -44 -6 -13 -17 -23 -23 -23 -6 0 -19 -7 -29 -16 -20 -18 -39 -11 -39 15 0
10 -9 30 -21 45 -19 24 -27 26 -93 26 -97 0 -158 -20 -210 -68 -23 -21 -68
-55 -99 -75 -53 -34 -107 -100 -107 -130 0 -16 34 -33 85 -43 20 -3 57 -22 81
-41 25 -18 50 -31 56 -27 17 10 45 85 53 137 7 52 53 116 73 103 19 -12 14
-42 -10 -59 -22 -15 -23 -15 -3 -22 11 -4 38 -15 61 -26 23 -10 46 -19 53 -19
6 0 11 -5 11 -11 0 -7 -18 -9 -47 -7 -47 3 -48 2 -51 -27 -2 -19 -19 -46 -45
-72 -33 -35 -48 -43 -77 -43 -19 1 -46 7 -60 15 -30 17 -73 19 -103 4 -12 -6
-47 -38 -77 -70 -44 -48 -64 -62 -100 -70 -24 -6 -48 -15 -51 -21 -9 -14 7
-57 28 -81 14 -15 14 -21 3 -41 -19 -37 -61 -51 -104 -35 -28 10 -38 10 -50 0
-20 -17 -36 -74 -36 -127 0 -57 24 -85 81 -91 66 -7 110 15 163 84 57 73 103
104 168 114 51 8 52 8 99 -34 26 -23 52 -55 58 -70 6 -16 15 -26 21 -22 5 3
10 1 10 -4 0 -6 -6 -11 -13 -11 -24 0 -57 -44 -50 -68 3 -12 11 -22 17 -22 22
0 116 113 116 139 0 6 -8 11 -19 11 -10 0 -26 11 -35 25 -9 14 -22 25 -30 25
-7 0 -27 18 -44 39 -27 33 -29 41 -17 51 12 10 25 3 71 -37 95 -80 104 -91
104 -118 0 -33 21 -73 53 -103 l24 -23 7 50 c7 53 34 96 52 83 7 -4 16 -27 21
-52 10 -52 35 -70 100 -70 63 0 73 7 73 50 0 22 5 42 10 45 6 3 10 -5 10 -19
0 -13 5 -47 11 -74 17 -72 0 -102 -70 -124 -63 -20 -100 -14 -189 30 -60 29
-85 24 -90 -21 -5 -41 -45 -46 -103 -14 -26 15 -52 27 -58 27 -7 0 -26 10 -44
22 -18 13 -34 24 -36 26 -3 1 6 13 19 27 29 31 20 52 -26 61 -28 5 -64 -2
-153 -30 -64 -20 -136 -39 -161 -42 -25 -4 -57 -13 -71 -20 -36 -18 -79 -71
-86 -105 -3 -16 -23 -46 -45 -66 -22 -21 -48 -50 -59 -66 l-21 -27 35 -83 c49
-115 75 -204 89 -308 16 -122 17 -122 154 -109 60 6 127 13 149 16 33 5 44 2
59 -15 12 -13 31 -21 52 -21 18 0 40 -7 48 -16 19 -19 19 -14 0 -59 -17 -42
-8 -79 28 -112 11 -10 26 -30 34 -45 19 -37 18 -136 -2 -173 -10 -20 -14 -44
-10 -71 6 -48 68 -199 92 -225 10 -11 14 -22 11 -26 -11 -10 -224 16 -310 38
-113 29 -228 72 -313 119 -80 44 -84 45 -84 29 0 -6 -15 -37 -34 -69 l-35 -59
107 -54 c215 -110 415 -157 664 -157 180 0 323 21 469 70 248 82 433 200 615
392 186 197 317 448 376 721 19 87 22 133 22 312 0 179 -3 225 -22 312 -79
365 -288 688 -576 890 -100 71 -274 159 -388 197 -211 69 -463 92 -683 61z
m557 -966 c12 -18 17 -20 35 -10 82 43 214 -52 142 -102 -25 -18 -74 -13 -100
9 -21 19 -36 18 -70 -7 -51 -36 -117 -7 -103 45 7 28 55 86 72 86 5 0 16 -10
24 -21z m497 -429 c21 -22 47 -40 57 -40 11 0 29 -7 40 -15 17 -11 40 -13 130
-5 125 10 129 8 166 -69 12 -25 33 -56 46 -68 l23 -22 -16 -92 c-41 -241 -163
-485 -336 -673 -75 -81 -179 -170 -188 -160 -3 3 4 13 17 21 12 9 22 26 22 38
0 37 -12 85 -21 85 -5 0 -47 -38 -94 -84 -79 -78 -85 -87 -85 -125 0 -36 -4
-44 -32 -61 -30 -19 -179 -80 -194 -80 -3 0 6 14 20 31 14 17 26 40 26 53 0
13 21 43 56 76 87 87 98 109 91 192 -6 69 -5 71 32 127 21 31 76 90 121 131
69 62 89 87 117 147 33 71 41 117 24 127 -5 3 -34 -6 -65 -20 -75 -34 -114
-30 -141 15 -11 18 -41 57 -66 85 -49 54 -154 248 -165 305 -12 59 20 31 124
-109 27 -36 109 -200 116 -232 9 -40 30 -36 154 26 102 52 153 93 196 156 22
33 21 89 -1 97 -10 3 -28 15 -40 25 -17 16 -25 18 -41 9 -12 -6 -30 -11 -42
-11 -26 0 -130 101 -130 127 0 46 31 44 79 -7z"/>
<path fill="#273A2E" d="M6090 5361 c-14 -27 -13 -57 5 -91 13 -25 13 -38 4 -76 -17 -66 -4
-74 68 -43 56 24 58 26 58 63 0 35 -3 39 -35 50 -29 9 -36 17 -38 41 -5 59
-12 75 -32 75 -11 0 -24 -9 -30 -19z"/>
<path fill="#273A2E" d="M5980 5238 c-16 -22 -30 -44 -30 -48 0 -16 30 -31 57 -28 23 2 31 11
42 45 12 34 13 44 2 57 -21 25 -39 19 -71 -26z"/>
<path fill="#273A2E" d="M6381 4841 c-9 -6 -11 -18 -7 -35 9 -35 20 -33 45 9 l20 35 -22 0
c-12 0 -28 -4 -36 -9z"/>
<path fill="#273A2E" d="M4672 4779 c-35 -5 -105 -23 -155 -39 -511 -164 -788 -727 -613
-1243 45 -132 114 -243 216 -350 194 -203 419 -301 695 -301 158 0 265 24 401
88 114 54 171 92 253 170 213 203 311 453 298 756 -7 159 -32 253 -102 395
-131 263 -368 449 -655 511 -85 19 -258 25 -338 13z m196 -281 c7 -7 12 -33
12 -59 0 -48 9 -59 49 -59 10 0 46 -14 80 -31 73 -37 131 -103 156 -180 22
-65 14 -74 -80 -88 -65 -9 -71 -8 -85 11 -33 45 -89 98 -104 98 -14 0 -16 -17
-16 -134 l0 -133 63 -23 c144 -52 201 -96 246 -190 22 -46 26 -68 26 -140 -1
-97 -21 -154 -80 -226 -39 -48 -147 -108 -214 -119 l-41 -7 0 -54 c0 -60 -14
-74 -70 -74 -56 0 -70 14 -70 74 l0 54 -43 6 c-63 10 -140 49 -187 96 -49 49
-103 157 -98 196 4 34 42 46 126 42 l57 -3 22 -48 c23 -47 71 -87 106 -87 15
0 17 14 17 155 0 103 -4 155 -11 155 -6 0 -44 14 -84 31 -94 39 -155 93 -185
161 -81 189 21 399 222 455 l58 16 0 48 c0 35 5 51 18 58 24 14 95 14 110 -1z"/>
<path fill="#273A2E" d="M4691 4174 c-13 -9 -29 -32 -37 -50 -24 -56 -1 -109 58 -140 l28 -15
0 111 c0 118 -4 125 -49 94z"/>
<path fill="#273A2E" d="M4880 3545 l0 -125 38 15 c54 23 74 47 79 99 6 53 -11 86 -60 116
-56 34 -57 32 -57 -105z"/>
</g>
</svg>
