<svg width="250" height="73" viewBox="0 0 250 73" fill="none" xmlns="http://www.w3.org/2000/svg">
<g clip-path="url(#clip0_3195_160)">
<mask id="mask0_3195_160" style="mask-type:luminance" maskUnits="userSpaceOnUse" x="0" y="0" width="250" height="73">
<path d="M250 0H0V73H250V0Z" fill="white"/>
</mask>
<g mask="url(#mask0_3195_160)">
<path d="M250 0H0V73H250V0Z" fill="#273A2E"/>
<path d="M85.4863 69.721H84.7363V63.2002H88.8203V63.9085H85.4863V66.096H88.6533V66.7835H85.4863V69.721Z" fill="white"/>
<path d="M95.3071 69.721H94.5151L93.8901 68.0544H90.6611L90.0361 69.721H89.2441L91.7021 63.2002H92.8271L95.3071 69.721ZM92.1821 63.9919L90.9111 67.346H93.6191L92.3691 63.9919H92.1821Z" fill="white"/>
<path d="M96.792 69.721H96.042V63.2002H97.396L99.396 68.8877H99.584L101.584 63.2002H102.938V69.721H102.188V64.1794H102L100.042 69.721H98.917L96.959 64.1794H96.792V69.721Z" fill="white"/>
<path d="M105.167 69.721H104.417V63.2002H105.167V69.721Z" fill="white"/>
<path d="M110.65 69.721H106.65V63.2002H107.4V69.0127H110.65V69.721Z" fill="white"/>
<path d="M113.957 69.721H113.207V67.2627L110.832 63.2002H111.624L113.478 66.4085H113.665L115.54 63.2002H116.332L113.957 67.2627V69.721Z" fill="white"/>
<path d="M121.358 69.8047C120.858 69.8047 120.421 69.7161 120.046 69.5339C119.671 69.3568 119.379 69.112 119.171 68.8047C118.973 68.5026 118.879 68.1693 118.879 67.8047H119.629C119.629 68.0443 119.691 68.263 119.816 68.4714C119.952 68.6693 120.155 68.8255 120.421 68.9505C120.681 69.0651 120.993 69.1172 121.358 69.1172C121.9 69.1172 122.301 69.013 122.566 68.8047C122.842 68.5859 122.983 68.2995 122.983 67.9505C122.983 67.6745 122.884 67.4453 122.691 67.263C122.509 67.0859 122.233 66.9609 121.858 66.888L120.608 66.638C119.551 66.4453 119.025 65.888 119.025 64.9714C119.025 64.612 119.113 64.2943 119.296 64.013C119.473 63.737 119.733 63.5234 120.066 63.3672C120.4 63.2005 120.796 63.1172 121.254 63.1172C121.738 63.1172 122.16 63.2109 122.525 63.388C122.9 63.5547 123.181 63.7943 123.379 64.0964C123.572 64.4036 123.671 64.7422 123.671 65.1172H122.941C122.941 64.8828 122.868 64.6693 122.733 64.4714C122.592 64.263 122.4 64.1068 122.15 63.9922C121.9 63.8672 121.598 63.8047 121.254 63.8047C120.78 63.8047 120.41 63.9193 120.15 64.138C119.9 64.3464 119.775 64.6276 119.775 64.9714C119.775 65.237 119.858 65.4609 120.025 65.638C120.202 65.8203 120.473 65.9401 120.837 65.9922L121.858 66.1797C122.509 66.3047 122.983 66.513 123.275 66.8047C123.577 67.0859 123.733 67.4661 123.733 67.9505C123.733 68.3151 123.634 68.638 123.441 68.9297C123.259 69.2109 122.988 69.4245 122.629 69.5755C122.264 69.7266 121.842 69.8047 121.358 69.8047Z" fill="white"/>
<path d="M129.122 69.721H124.935V63.2002H129.122V63.9085H125.685V66.096H128.935V66.7835H125.685V69.0127H129.122V69.721Z" fill="white"/>
<path d="M132.608 67.2002L135.212 69.721H134.296L131.671 67.2002H131.129V69.721H130.379V63.2002H133.212C133.556 63.2002 133.868 63.2939 134.15 63.471C134.426 63.6377 134.65 63.8773 134.816 64.1794C134.983 64.4867 135.066 64.8252 135.066 65.2002C135.066 65.5752 134.983 65.9189 134.816 66.221C134.65 66.5283 134.426 66.7731 134.15 66.9502C133.868 67.1169 133.556 67.2002 133.212 67.2002H132.608ZM131.129 66.5127H133.212C133.514 66.5127 133.78 66.3981 134.004 66.1585C134.223 65.9085 134.337 65.5908 134.337 65.2002C134.337 64.8148 134.223 64.5023 134.004 64.2627C133.78 64.0283 133.514 63.9085 133.212 63.9085H131.129V66.5127Z" fill="white"/>
<path d="M139.167 69.721H138.042L135.667 63.2002H136.459L138.521 68.9294H138.709L140.75 63.2002H141.542L139.167 69.721Z" fill="white"/>
<path d="M143.133 69.721H142.383V63.2002H143.133V69.721Z" fill="white"/>
<path d="M147.449 69.8047C146.876 69.8047 146.35 69.6693 145.866 69.388C145.392 69.112 145.017 68.7161 144.741 68.2005C144.46 67.6901 144.324 67.112 144.324 66.4714C144.324 65.8203 144.46 65.237 144.741 64.7214C145.017 64.2109 145.392 63.8151 145.866 63.5339C146.35 63.2578 146.876 63.1172 147.449 63.1172C148.158 63.1172 148.767 63.3151 149.283 63.7005C149.793 64.0911 150.147 64.6276 150.345 65.3047H149.553C149.387 64.8359 149.116 64.4661 148.741 64.2005C148.366 63.9401 147.934 63.8047 147.449 63.8047C147.017 63.8047 146.621 63.9193 146.262 64.138C145.897 64.362 145.605 64.6745 145.387 65.0755C145.178 65.4818 145.074 65.9453 145.074 66.4714C145.074 66.987 145.178 67.4453 145.387 67.8464C145.605 68.2526 145.897 68.5651 146.262 68.7839C146.621 69.0078 147.017 69.1172 147.449 69.1172C147.934 69.1172 148.366 68.987 148.741 68.7214C149.116 68.4453 149.387 68.0651 149.553 67.5755H150.345C150.147 68.2734 149.793 68.8203 149.283 69.2214C148.767 69.612 148.158 69.8047 147.449 69.8047Z" fill="white"/>
<path d="M155.596 69.721H151.408V63.2002H155.596V63.9085H152.158V66.096H155.408V66.7835H152.158V69.0127H155.596V69.721Z" fill="white"/>
<path d="M158.998 69.8047C158.498 69.8047 158.06 69.7161 157.685 69.5339C157.31 69.3568 157.019 69.112 156.81 68.8047C156.612 68.5026 156.519 68.1693 156.519 67.8047H157.269C157.269 68.0443 157.331 68.263 157.456 68.4714C157.591 68.6693 157.795 68.8255 158.06 68.9505C158.321 69.0651 158.633 69.1172 158.998 69.1172C159.539 69.1172 159.94 69.013 160.206 68.8047C160.482 68.5859 160.623 68.2995 160.623 67.9505C160.623 67.6745 160.524 67.4453 160.331 67.263C160.149 67.0859 159.873 66.9609 159.498 66.888L158.248 66.638C157.19 66.4453 156.664 65.888 156.664 64.9714C156.664 64.612 156.753 64.2943 156.935 64.013C157.112 63.737 157.373 63.5234 157.706 63.3672C158.039 63.2005 158.435 63.1172 158.894 63.1172C159.378 63.1172 159.8 63.2109 160.164 63.388C160.539 63.5547 160.821 63.7943 161.019 64.0964C161.211 64.4036 161.31 64.7422 161.31 65.1172H160.581C160.581 64.8828 160.508 64.6693 160.373 64.4714C160.232 64.263 160.039 64.1068 159.789 63.9922C159.539 63.8672 159.237 63.8047 158.894 63.8047C158.42 63.8047 158.05 63.9193 157.789 64.138C157.539 64.3464 157.414 64.6276 157.414 64.9714C157.414 65.237 157.498 65.4609 157.664 65.638C157.841 65.8203 158.112 65.9401 158.477 65.9922L159.498 66.1797C160.149 66.3047 160.623 66.513 160.914 66.8047C161.216 67.0859 161.373 67.4661 161.373 67.9505C161.373 68.3151 161.274 68.638 161.081 68.9297C160.899 69.2109 160.628 69.4245 160.269 69.5755C159.904 69.7266 159.482 69.8047 158.998 69.8047Z" fill="white"/>
<path d="M99.2241 22.6553H98.2451V22.2803H110.558V22.6553H109.578C108.604 22.6553 107.834 22.9157 107.266 23.4261C106.709 23.9417 106.308 24.6292 106.058 25.4886C105.818 26.3532 105.703 27.3376 105.703 28.4469V44.1969C106.922 42.6865 108.229 41.1657 109.62 39.6344C111.021 38.0928 112.391 36.6032 113.724 35.1553C115.058 33.7126 116.266 32.3584 117.349 31.0928C118.433 29.8167 119.292 28.6917 119.933 27.7178C120.584 26.7334 120.912 25.9469 120.912 25.3636C120.912 24.2803 120.521 23.5511 119.745 23.1761C118.979 22.7907 118.063 22.5928 116.995 22.5928V22.2803H131.078V22.6344C129.688 22.6344 128.276 23.0094 126.849 23.7594C125.417 24.5094 123.979 25.5094 122.537 26.7594C121.089 28.0094 119.641 29.4053 118.183 30.9469C116.724 32.4782 115.266 34.0251 113.808 35.5928L131.349 56.9469H127.995L112.037 37.5303C110.771 38.9469 109.599 40.2751 108.516 41.5094C107.443 42.749 106.506 43.8376 105.703 44.7803V50.7803C105.703 51.8636 105.818 52.8428 106.058 53.7178C106.308 54.5928 106.709 55.2907 107.266 55.8011C107.834 56.3167 108.604 56.5719 109.578 56.5719H110.558V56.9469H98.2451V56.5719H99.2241C100.183 56.5719 100.943 56.3167 101.516 55.8011C102.084 55.2907 102.485 54.5928 102.724 53.7178C102.974 52.8428 103.099 51.8636 103.099 50.7803V28.4469C103.099 27.3376 102.974 26.3532 102.724 25.4886C102.485 24.6292 102.084 23.9417 101.516 23.4261C100.943 22.9157 100.183 22.6553 99.2241 22.6553Z" fill="white"/>
<path d="M133.417 56.9469V56.5719H134.396C135.354 56.5719 136.115 56.3167 136.688 55.8011C137.256 55.2907 137.657 54.5928 137.896 53.7178C138.146 52.8428 138.271 51.8636 138.271 50.7803V28.4469C138.271 27.3376 138.146 26.3532 137.896 25.4886C137.657 24.6292 137.256 23.9417 136.688 23.4261C136.115 22.9157 135.354 22.6553 134.396 22.6553H133.417V22.2803H153.146C154.573 22.2803 155.959 22.4469 157.292 22.7803C158.636 23.1032 159.839 23.5928 160.896 24.2594C161.964 24.9261 162.802 25.8011 163.417 26.8844C164.026 27.9574 164.334 29.2386 164.334 30.7386C164.334 32.2282 164.084 33.4886 163.584 34.5303C163.094 35.5615 162.438 36.4053 161.604 37.0719C160.771 37.7282 159.844 38.2386 158.834 38.6136C157.834 38.9782 156.823 39.2334 155.813 39.3844C154.797 39.5407 153.844 39.6136 152.959 39.6136H148.834L163.584 56.9469H160.188L145.438 39.6136H140.875V50.7803C140.875 51.8636 140.99 52.8428 141.229 53.7178C141.479 54.5928 141.881 55.2907 142.438 55.8011C143.006 56.3167 143.776 56.5719 144.75 56.5719H145.729V56.9469H133.417ZM140.875 39.0928H151.959C153.792 39.0928 155.443 38.8011 156.917 38.2178C158.401 37.624 159.573 36.7074 160.438 35.4678C161.297 34.2334 161.729 32.6553 161.729 30.7386C161.729 28.8636 161.297 27.3428 160.438 26.1761C159.573 25.0094 158.401 24.1553 156.917 23.6136C155.443 23.0719 153.792 22.8011 151.959 22.8011H140.875V39.0928Z" fill="white"/>
<path d="M168.139 22.2803H197.847V25.7178C195.816 24.8167 193.722 24.1657 191.555 23.7594C189.389 23.3584 187.274 23.1032 185.222 22.9886C183.165 22.8636 181.248 22.8011 179.472 22.8011C178.014 22.8011 176.998 23.3376 176.43 24.4053C175.873 25.4626 175.597 26.8115 175.597 28.4469V37.1969H196.805V39.6136H175.597V50.7803C175.597 52.4209 175.873 53.7751 176.43 54.8428C176.998 55.9001 178.014 56.4261 179.472 56.4261C181.248 56.4261 183.165 56.374 185.222 56.2594C187.274 56.1344 189.389 55.874 191.555 55.4678C193.722 55.0667 195.816 54.4157 197.847 53.5094V56.9469H168.139V56.5928H169.118C170.076 56.5928 170.837 56.3428 171.41 55.8428C171.977 55.3324 172.378 54.6292 172.618 53.7386C172.868 52.8532 172.993 51.8636 172.993 50.7803V28.4469C172.993 26.8115 172.706 25.4469 172.139 24.3636C171.566 23.2803 170.561 22.7126 169.118 22.6553L168.139 22.6344V22.2803Z" fill="white"/>
<path d="M46.8355 32.4466C46.8355 36.1445 47.3825 39.3424 48.4815 42.0508C49.5905 44.7591 51.0905 46.9987 52.9815 48.7591C54.8825 50.5091 57.0445 51.8112 59.4605 52.6549C61.8875 53.5039 64.4245 53.9258 67.0645 53.9258C69.5645 53.9258 72.0855 53.5612 74.6275 52.8216C77.1695 52.0716 79.5645 50.9831 81.8145 49.5508C84.0645 48.1081 86.0705 46.3372 87.8355 44.2383C89.5965 42.1289 90.9865 39.7174 92.0025 37.0091C93.0125 34.3008 93.5235 31.3112 93.5235 28.0299C93.5235 24.2383 92.9505 20.9466 91.8145 18.1549C90.6895 15.3529 89.1485 13.0456 87.1895 11.2383C85.2425 9.43618 83.0335 8.08198 80.5645 7.17578C78.0905 6.27468 75.5235 5.82158 72.8565 5.82158C70.3405 5.82158 67.8405 6.19658 65.3565 6.94658C62.8675 7.69658 60.5125 8.81118 58.2945 10.2799C56.0705 11.7539 54.0965 13.5612 52.3775 15.6966C50.6535 17.8216 49.2995 20.2956 48.3145 23.1133C47.3255 25.9206 46.8355 29.0299 46.8355 32.4466ZM43.4395 29.9466C43.4395 26.3372 44.1325 22.957 45.5235 19.8008C46.9085 16.6497 48.8205 13.8633 51.2525 11.4466C53.6955 9.01948 56.5235 7.12888 59.7315 5.77988C62.9505 4.42058 66.4085 3.73828 70.1065 3.73828C73.7995 3.73828 77.2525 4.42058 80.4605 5.77988C83.6795 7.12888 86.5075 9.01948 88.9395 11.4466C91.3825 13.8633 93.2995 16.6497 94.6895 19.8008C96.0755 22.957 96.7735 26.3372 96.7735 29.9466C96.7735 33.5456 96.0755 36.9258 94.6895 40.0924C93.2995 43.2591 91.3825 46.0404 88.9395 48.4258C86.5075 50.8164 83.6795 52.6914 80.4605 54.0508C77.2525 55.3945 73.7995 56.0716 70.1065 56.0716C66.4085 56.0716 62.9505 55.3945 59.7315 54.0508C56.5235 52.6914 53.6955 50.8164 51.2525 48.4258C48.8205 46.0404 46.9085 43.2591 45.5235 40.0924C44.1325 36.9258 43.4395 33.5456 43.4395 29.9466Z" fill="white"/>
</g>
</g>
<defs>
<clipPath id="clip0_3195_160">
<rect width="250" height="73" fill="white"/>
</clipPath>
</defs>
</svg>
