<svg width="421" height="202" viewBox="0 0 421 202" fill="none" xmlns="http://www.w3.org/2000/svg">
<rect width="421" height="202" fill="#273A2E"/>
<g clip-path="url(#clip0_3223_250)">
<path d="M199.375 0.625488H0V202H199.375V0.625488Z" fill="#273A2E"/>
<mask id="mask0_3223_250" style="mask-type:luminance" maskUnits="userSpaceOnUse" x="0" y="14" width="200" height="188">
<path d="M0.296387 14.1755H199.671V201.873H0.296387V14.1755Z" fill="white"/>
</mask>
<g mask="url(#mask0_3223_250)">
<path fill-rule="evenodd" clip-rule="evenodd" d="M110.371 188.046C108.194 190.417 110.235 194.248 112.315 195.541C114.398 196.831 113.688 199.538 113.688 199.538C113.688 199.538 116.019 197.29 113.731 194.499C111.442 191.707 111.95 187.727 116.377 185.072C119.912 183.616 122.751 182.871 122.751 182.871C117.442 196.062 129.447 197.854 129.447 197.854C124.841 196.118 121.367 189.492 126.387 181.538C127.015 180.538 127.624 179.545 128.18 178.561C128.819 179.242 129.782 179.822 130.759 181.2C132.383 183.493 131.052 186.574 131.052 186.574C133.298 184.991 132.591 180.952 132.591 180.952C134.883 181.577 134.548 183.616 134.548 183.616C134.548 183.616 135.215 181.659 134.297 180.786C133.382 179.91 129.011 177.535 130.036 174.77L130.042 174.747C132.132 169.399 131.328 164.62 122.233 161.428C109.411 156.93 107.757 145.227 107.757 145.227C113.265 156.187 130.228 153.93 132.1 156.138C133.975 158.344 131.602 161.304 133.184 165.47C134.766 169.636 141.843 169.219 141.843 169.219C141.843 169.219 133.932 168.22 135.68 161.304C135.912 160.396 136.136 159.568 136.332 158.809C138.093 159.331 140.964 158.813 143.057 159.282C145.56 159.845 145.97 163.822 145.97 163.822C145.97 163.822 146.719 162.2 145.762 159.451C144.805 156.699 137.028 157.011 136.957 155.324V155.314C136.97 152.81 135.218 151.647 128.854 151.1C118.737 150.223 116.686 144.937 116.686 144.937C125.088 149.624 138.679 148.139 145.176 148.044C151.673 147.95 149.857 154.624 149.968 161.405C149.977 162.067 150.033 162.669 150.13 163.22C150.13 163.487 150.208 163.845 150.397 164.33L150.41 164.36L150.443 164.464C151.227 167.21 142.783 168.9 141.39 173.819C141.1 174.838 141.309 175.923 141.755 177.069C141.755 179.447 129.815 188.359 133.643 195.857C134.632 189.036 140.563 183.359 143.132 179.897C145.182 183.747 147.539 188.141 142.37 192.932C142.37 192.932 149.424 189.603 147.321 183.17C145.218 176.737 142.923 175.148 147.048 172.653L147.679 172.271C146.328 174.337 149.99 177.545 153.031 177.669C156.068 177.792 157.067 180.46 157.067 180.46C157.067 180.46 156.527 177.418 153.822 176.337C151.113 175.252 148.871 174.294 150.075 170.816C151.625 169.845 152.907 168.923 153.659 167.943C155.443 168.698 157.695 168.767 159.997 168.597C165.075 168.223 163.535 172.47 163.493 174.76C163.451 177.053 165.915 177.773 165.915 177.773C165.915 177.773 164.16 176.968 165.625 172.304C167.09 167.636 165.781 166.555 158.981 165.249C154.867 164.457 153.9 161.617 153.968 158.8C155.296 160.031 157.783 160.946 161.576 159.907C167.197 158.363 166.556 157.516 167.988 160.363C169.421 163.21 171.527 159.699 174.151 161.572C176.774 163.448 173.942 169.32 173.942 169.32C179.027 163.506 176.231 159.741 176.231 159.741C177.972 158.904 179.688 155.907 179.688 155.907C179.688 155.907 176.13 159.94 172.65 158.865C169.173 157.79 170.485 152.451 165.658 154.699C160.827 156.95 155.166 155.073 155.202 153.129C155.205 152.797 155.156 152.572 155.069 152.428C155.179 150.109 154.001 148.644 154.001 148.644C154.001 148.644 158.249 150.683 166.992 148.559C175.733 146.432 172.113 151.1 179.063 152.308C186.016 153.516 189.483 148.194 189.483 148.194C185.908 150.702 180.524 149.976 175.814 146.683C174.03 145.435 172.373 144.895 170.71 144.751C172.227 143.142 177.412 143.386 184.294 143.432C191.175 143.478 194.87 136.1 194.87 136.1C190.388 140.429 185.013 140.647 179.785 140.732C185.726 139.546 189.831 132.257 191.494 126.257C193.161 120.257 196.159 119.175 199.671 118.039C193.91 117.674 190.329 118.508 186.667 128.589C183.001 138.67 173.154 141.093 173.154 141.093V141.097C170.055 141.549 167.194 142.641 164.828 145.367C163.89 145.556 162.91 145.758 161.872 145.934C156.452 146.852 155.208 144.1 149.297 143.683C145.798 143.439 138.18 142.781 131.498 140.807C136.462 141.504 139.043 136.921 147.285 137.921C155.528 138.921 157.858 144.087 162.936 143.67C162.936 143.67 160.108 142.631 158.024 139.631C158.024 139.631 161.273 136.839 167.848 137.67C174.427 138.504 175.925 131.172 180.257 130.423C180.257 130.423 177.093 129.423 173.845 132.507C170.596 135.589 167.184 135.504 163.727 134.797C160.274 134.09 155.485 137.172 155.485 137.172C155.485 137.172 150.99 134.673 145.41 134.172C140.58 133.739 131.817 140.488 124.362 137.817C122.891 136.921 121.654 135.888 120.772 134.699C110.3 120.286 114.834 102.381 136.185 94.7398C138.477 94.5769 140.625 95.1567 142.679 96.5182C146.631 99.1371 151.963 101.313 157.051 98.8406C162.142 96.3684 164.232 98.5736 164.232 98.5736C163.626 96.8114 161.208 96.2153 156.976 97.4922C152.748 98.769 149.343 97.3423 145.899 93.9711C145.319 93.4043 144.688 92.9386 144.037 92.5509C149.037 91.4923 153.623 91.0526 156.904 90.5999C157.272 90.551 157.634 90.4924 157.982 90.4272H157.979C157.979 90.4272 167.682 93.147 172.171 89.9289C176.664 86.7075 177.188 81.5774 179.47 79.8901C181.755 78.2061 183.438 79.4048 184.561 76.2583C181.944 79.3299 179.694 76.1834 176.214 81.8379C173.119 86.8671 170.436 89.0527 164.613 87.7889C168.854 84.789 169.837 80.2745 169.626 77.4179C169.323 73.2975 170.078 71.9523 174.417 67.0827C178.76 62.2132 174.867 56.9723 174.867 56.9723C177.113 63.1122 172.848 64.4606 168.952 67.5322C168.054 68.2423 167.481 69.0924 167.09 70.0468C164.802 68.0403 160.57 66.7668 160.016 61.9819C158.819 65.8026 162.038 68.9458 164.583 71.5679C165.785 72.8057 166.009 74.4278 165.908 75.7925C165.759 76.6785 165.57 77.5938 165.287 78.5286C164.938 79.6817 164.45 80.8673 163.714 82.0627C161.436 85.7661 153.431 86.0267 143.985 87.2384C144.938 84.9518 147.142 78.5742 147.142 78.5742C147.142 78.5742 140.651 87.7042 138.516 88.0527C138.464 88.0625 138.415 88.0723 138.366 88.082C129.597 89.6325 120.348 92.6096 113.636 100.114C117.91 70.252 144.151 76.2974 148.753 64.5909C151.224 58.438 156.764 55.7997 159.196 51.8031C161.12 48.6468 162.018 42.9337 156.38 38.7709C163.535 47.4449 152.881 53.8714 148.77 58.7866C147.376 53.7998 143.506 48.5654 145.15 43.7154C141.185 50.3797 147.8 58.6302 145.449 63.3369C142.663 68.9198 133.666 69.125 124.281 72.9978C124.912 70.9132 125.557 66.9264 123.594 61.9884C123.366 61.4217 123.161 60.8679 122.975 60.324C122.975 60.324 122.097 53.676 126.511 50.5328C130.928 47.3863 135.345 46.1876 136.169 42.3669C136.992 38.5494 136.192 33.4975 139.912 30.5334C139.912 30.5334 136.553 30.5399 134.971 36.6765C133.392 42.8099 132.269 44.2984 127.438 46.0248C124.883 46.94 123.076 48.4384 121.93 50.2363C122.357 48.0084 123.262 45.8228 124.642 43.4906C128.236 37.4224 130.02 29.0253 122.764 21.804C122.764 21.804 128.607 29.8592 125.316 37.3475C123.724 40.963 121.683 43.673 120.078 46.3896C119.502 38.8556 116.273 37.5527 116.273 37.5527C119.365 43.3441 118.2 49.9334 117.858 51.4969C117.829 51.6044 117.806 51.7151 117.78 51.8226L117.777 51.8422V51.8389C117.481 53.1874 117.373 54.6499 117.529 56.298C118.171 63.021 121.764 68.3205 118.395 75.9912C111.944 80.0171 105.889 86.7238 102.184 99.1371C103.034 88.2807 98.9129 80.7533 93.7176 75.1965C93.5939 73.2454 93.8478 70.721 95.3029 68.2846C97.1812 65.1349 102.07 62.0698 103.412 57.7084C104.209 55.1222 103.757 52.0767 100.69 48.2853C100.69 48.2853 105.033 55.4023 99.6421 60.0471C95.5698 63.5551 91.2729 67.1576 89.8016 71.4832C86.4813 68.6527 83.1154 66.4215 80.5633 64.4965C79.7821 60.9005 85.4689 54.158 85.4689 54.158C85.4689 54.158 79.4175 59.2035 78.353 62.692C78.1512 62.5031 77.9591 62.3207 77.7801 62.1382C75.0229 59.3077 74.437 56.5423 74.9025 53.2135C78.1089 40.4712 91.592 39.4615 97.1942 32.7353V32.7418C109.818 30.8722 109.597 21.1428 109.597 21.1428C107.503 28.5139 101.286 29.8852 98.8315 30.136C100.996 25.5368 100.645 19.5696 96.2371 14.4297C96.2371 14.4297 101.475 23.9408 95.1857 30.6832C90.8921 35.2889 83.3335 37.0804 78.1414 41.5461C78.3726 40.7513 78.6037 39.9272 78.8283 39.0706C81.8231 27.6866 74.7104 23.9017 74.7104 23.9017C83.6655 36.113 69.3979 46.7088 70.2964 56.4446C71.1948 66.1837 74.7104 64.6463 84.3426 74.2193C93.9813 83.7923 93.2 91.4728 93.2 91.4728C90.5666 85.6782 81.9728 81.8868 75.3843 81.3135C68.799 80.7403 68.5288 75.9261 68.2749 70.5256C68.021 65.1251 62.8094 64.9851 62.8094 64.9851C68.3758 67.3433 65.6382 71.2194 66.1134 76.6133C61.9435 75.3137 56.2729 76.9586 57.0509 71.9523C55.5568 74.6492 57.2853 77.2518 59.5867 77.6622C61.4845 78.0042 64.8048 78.3201 66.6473 79.3429C68.6265 85.6424 74.7983 84.105 80.0262 87.8671C85.342 91.6845 85.0425 95.2056 85.0425 95.2056C75.0132 86.8182 59.9644 89.9615 55.1011 87.942C50.2345 85.9192 50.9084 80.8249 51.2827 75.2062C51.439 72.835 51.1655 70.493 50.3713 68.4833C50.3713 68.4833 49.411 63.0926 54.1115 60.2947C58.8088 57.5 60.1466 50.093 57.4578 44.9564C54.769 39.8197 54.4696 37.3508 57.3114 30.3087C57.3114 30.3087 52.2983 37.126 53.8706 43.2659C55.4429 49.409 56.4162 53.8258 51.5496 57.6465C48.5223 60.0243 47.2625 62.49 46.7417 64.0111C45.9312 63.5193 45.0034 63.1447 43.9455 62.9232C38.2847 61.7311 36.4618 58.4283 36.7612 53.1125C37.0607 47.7934 33.0177 47.6436 33.0177 47.6436C35.9377 49.8162 35.0392 51.5392 35.3387 58.2035C35.6382 64.8711 42.8224 63.5226 45.5177 68.3172C47.3309 71.5386 47.1128 74.4929 46.7287 78.04C45.5015 77.47 43.6069 76.9716 41.146 77.4961C36.5789 78.47 34.4826 77.9814 34.297 75.0629C34.1082 72.1412 30.6675 71.0174 27.5229 71.392C24.3784 71.7666 21.9272 68.809 22.1323 65.5127C22.1323 65.5127 20.7847 71.278 25.5015 72.4767C30.2183 73.6753 31.1167 73.0011 32.2365 77.4961C33.3595 81.9878 38.0568 80.6523 42.2723 80.4634C44.2417 80.3787 45.534 81.0985 46.3543 81.8868C46.312 82.4861 46.2827 83.105 46.2664 83.7434C46.2437 84.7825 46.3413 85.7401 46.5496 86.6195C44.8602 86.3818 42.9168 86.4567 40.8791 87.2189C34.7821 89.5022 28.2326 91.577 24.7137 87.3068C21.1981 83.0399 16.3315 84.6131 16.3315 84.6131C16.3315 84.6131 20.6968 84.2971 23.8088 88.538C26.2306 91.8344 29.7137 92.9516 33.6037 92.2089C33.2261 93.2773 32.0575 94.7496 28.5353 95.1404C22.8452 95.7723 23.1805 100.938 23.1805 100.938C23.1805 100.938 23.7697 97.7658 26.9631 96.8212C30.0555 95.9026 35.3452 95.8831 36.4162 91.3816C36.618 91.3002 36.8231 91.2155 37.0282 91.1275C41.4748 89.1895 45.8172 89.4533 49.5314 91.3458C50.1108 91.7985 50.7554 92.1894 51.4552 92.5086H51.4585C53.0405 93.2284 54.9123 93.6063 56.9696 93.6323C87.2332 93.9906 96.312 116.508 79.9937 135.237C79.577 135.68 78.9878 136.269 78.2521 136.927C74.5509 138.543 64.4793 138.462 60.2345 136.295C55.9865 134.129 53.2391 134.794 53.2391 134.794C53.2391 134.794 57.1095 135.419 59.6486 137.504C61.7384 139.217 66.5887 141.549 71.3966 141.396C68.1903 142.787 64.3166 143.549 60.0262 142.536C50.5926 140.305 52.5229 137.582 45.3582 138.201C42.0282 137.172 40.2573 133.872 36.4259 131.752C32.0509 129.325 22.9591 131.458 19.0562 128.765C22.5978 133.638 32.0054 131.8 34.105 133.856C35.5633 135.282 37.6271 137.52 39.6909 138.895C32.5881 139.79 26.2827 140.305 23.174 136.745C23.174 136.745 24.4663 141.865 30.1271 142.035C35.7879 142.201 43.2456 140.702 47.7118 141.341C52.1779 141.979 54.1636 144.8 58.161 145.924C58.161 145.924 51.7091 148.631 46.3381 146.673C42.5034 145.276 37.7834 143.816 32.5067 145.344L32.4969 145.347C29.1766 146.051 23.7664 146.051 20.6024 140.8C20.0229 139.843 19.3752 138.97 18.659 138.198C17.7183 134.224 18.0373 127.716 14.6877 125.006C10.7749 121.843 5.49495 123.205 0.325684 117.153C2.11605 121.925 7.65316 124.299 11.7352 126.384C15.1174 128.11 14.4338 132.908 14.4826 135.253C11.8491 134.188 8.69808 134.149 5.06527 135.523C5.06527 135.523 13.3986 135.136 16.439 139.843C19.092 143.953 20.7293 148.132 26.5138 148.37C26.3153 148.517 26.1167 148.663 25.9181 148.819C17.9852 155.005 12.855 152.135 12.855 152.135C12.855 152.135 14.5314 154.337 20.4006 154.213C26.2697 154.09 31.9338 146.214 38.2196 148.507C38.2196 148.507 30.9246 149.839 31.2404 155.507C31.5594 161.171 22.2072 161.539 25.5698 169.373C25.5698 169.373 25.3973 165.418 29.0203 163.627C32.6401 161.835 35.5308 160.428 35.6056 155.239C35.6805 150.047 42.7996 150.295 46.0483 151.129C46.3088 151.197 46.6929 151.272 47.1812 151.354C42.8029 152.321 41.3869 155.819 42.1356 159.985C42.8843 164.154 34.3101 165.904 34.3101 165.904C34.3101 165.904 42.9266 166.36 44.258 162.321C45.5926 158.278 42.2235 153.409 52.9201 151.992H52.9233C61.0744 152.585 73.9097 152.412 79.6877 147.754C79.6877 147.754 77.0249 153.917 66.8654 157.083L66.6994 157.135C64.2482 155.37 59.3817 155.305 55.9409 155.627C51.9468 156.005 49.4891 155.005 49.4891 155.005C51.3641 158.086 55.3192 156.419 58.6883 156.963C60.5763 157.265 61.6408 157.842 62.2137 158.291C54.8667 159.861 50.4982 159.497 49.6291 165.5C48.5907 172.672 42.5522 177.164 33.2261 176.164C33.2261 176.164 39.2645 179.037 45.9246 176.122C49.3328 174.63 50.6252 171.897 51.8914 169.246C52.0542 170.154 52.396 171.096 53.034 171.946C55.2508 174.903 55.0425 180.193 50.2118 180.861C45.3843 181.525 44.5151 184.942 44.5151 184.942C44.5151 184.942 46.9663 182.108 51.4618 182.151C55.9572 182.193 57.2886 179.108 57.2886 179.108C57.2886 179.108 60.9116 181.151 60.4136 184.193C60.4136 184.193 62.3276 179.193 57.6629 176.903C57.6629 176.903 58.3498 174.115 56.6636 171.653C54.9774 169.193 53.6655 164.728 58.7827 162.503C60.6187 161.962 62.5099 161.734 64.4207 161.532C63.1317 163.262 63.353 164.835 63.353 164.835C63.353 164.835 60.7716 166.167 61.8979 168.627C63.021 171.083 61.439 173.666 61.439 173.666C61.439 173.666 63.6037 171.333 63.187 169.666C62.7703 168.001 64.0203 166.334 64.0203 166.334C64.0203 166.334 64.3947 167.874 68.0991 169.376C71.8035 170.874 70.8465 173.457 70.8465 173.457C72.6369 169.047 68.7664 168.793 67.0998 166.125C65.4364 163.461 69.0985 161.627 71.0223 160.5H71.0256C72.8192 160.005 74.5933 159.239 76.3153 157.959C76.3153 157.959 74.0594 162.317 76.6864 166.262C79.3133 170.206 78.8966 175.454 70.7358 177.369C62.5783 179.288 65.2476 184.825 63.4539 188.388C61.6603 191.952 56.8491 192.499 56.8491 192.499C56.8491 192.499 64.2417 193.45 66.5334 188.492C68.8218 183.535 67.0347 182.242 71.9045 181.037C76.7742 179.828 79.1473 177.118 79.1473 177.118C79.1473 177.118 79.8146 179.577 75.2769 183.284C70.7391 186.994 71.12 196.134 80.4624 200.29C80.4624 200.29 75.1532 195.241 76.0256 189.952C76.5627 186.714 78.6851 184.382 80.6642 182.011C80.2476 186.434 82.6239 187.532 84.0236 189.027C85.8953 191.027 83.3563 196.026 83.3563 196.026C83.3563 196.026 88.4767 189.401 85.1043 187.069C81.7319 184.737 83.314 179.737 83.8153 177.203C85.6024 172.62 82.8647 168.389 81.1948 163.568C79.5249 158.748 83.2326 154.871 90.1857 151.246C95.9409 148.246 100.007 140.595 99.8895 134.025C102.083 154.139 82.5002 157.634 87.2072 164.558C88.9617 167.141 93.4084 169.291 93.1772 171.903C92.9689 174.258 90.7065 177.288 89.1864 179.864C87.0216 183.528 87.3537 184.945 91.0158 187.03C91.0158 187.03 88.3921 184.287 89.8081 181.613C91.2274 178.939 97.7052 174.148 97.3732 170.835C103.249 173.138 107.461 175.473 102.08 181.714C107.826 178.965 110.739 174.255 105.576 171.089C100.593 168.034 88.62 163.588 93.7111 159.803C98.8022 156.015 102.005 152.23 102.005 152.23C102.901 153.865 104.261 155.467 105.84 156.933C107.074 158.291 103.91 164.249 106.406 166.747C108.903 169.249 111.234 169.747 111.234 169.747C111.234 169.747 106.664 166.711 107.572 162.917C108.246 160.093 108.701 160.223 108.89 159.415C110.703 160.718 112.591 161.803 114.281 162.552H114.284C117.344 164.096 117.246 167.031 115.495 170.78C113.747 174.529 117.578 177.695 117.578 177.695C117.578 177.695 115.511 173.838 117.383 171.493C118.958 169.519 120.173 166.969 120.095 165.067C123.141 166.49 125.397 168.005 125.628 170.373C126.778 182.144 108.985 180.985 102.347 189.128L102.337 189.134C98.7534 191.965 91.1004 191.401 90.0164 195.069C88.9357 198.733 85.0229 199.482 85.0229 199.482C85.0229 199.482 89.2254 199.482 91.3478 195.61C93.187 192.255 97.1193 193.649 100.003 193.313C97.9884 199.486 104.033 202.117 104.033 202.117C100.593 196.026 104.981 191.294 110.371 188.046Z" fill="white"/>
</g>
<mask id="mask1_3223_250" style="mask-type:luminance" maskUnits="userSpaceOnUse" x="0" y="0" width="200" height="109">
<path d="M0.416504 0.498291H199.583V108.4H0.416504V0.498291Z" fill="white"/>
</mask>
<g mask="url(#mask1_3223_250)">
<path fill-rule="evenodd" clip-rule="evenodd" d="M97.783 17.2665C97.783 17.2665 89.2544 15.1851 89.9998 8.64787C90.7453 2.11387 89.6906 1.8761 89.6906 1.8761C89.6906 1.8761 102.868 3.68386 97.783 17.2665ZM100.166 15.8366C100.166 15.8366 100.019 9.02245 107.054 7.14954C107.054 7.14954 108.327 13.2894 100.166 15.8366ZM128.535 28.7938C128.535 28.7938 126.292 22.4292 132.428 19.6573C132.428 19.6573 135.049 25.4226 128.535 28.7938ZM115.364 12.1787C115.364 12.1787 127.695 11.4947 126.276 26.6929C126.276 26.6929 114.935 25.7385 115.364 12.1787ZM124.349 31.4549C124.349 31.4549 123.607 26.087 117.044 26.1782C117.044 26.1782 116.673 31.7318 124.349 31.4549ZM55.5532 33.2888C51.4386 26.3216 57.0701 19.5824 61.2433 14.7877C61.2433 14.7877 68.1313 27.2206 55.5532 33.2888ZM52.7863 35.9108C52.7863 35.9108 54.7329 28.1945 47.9979 24.8982C47.9979 24.8982 44.1795 32.7644 52.7863 35.9108ZM127.848 19.5889C127.848 19.5889 120.957 10.4393 128.037 4.09752C128.037 4.09752 134.827 12.5305 127.848 19.5889ZM103.812 0.498291C103.812 0.498291 99.3651 1.98033 99.951 9.02245C99.951 9.02245 105.179 7.99316 103.812 0.498291ZM75.9406 24.8167C75.9406 24.8167 79.466 16.2665 68.5806 14.1917C68.5806 14.1917 67.1613 24.149 75.9406 24.8167ZM52.6366 25.2727C52.6366 25.2727 57.0343 17.4098 52.1645 12.7455C52.1645 12.7455 47.0246 18.3837 52.6366 25.2727ZM22.4087 67.7665C27.5356 57.8906 16.9106 57.0111 16.5233 50.0667C16.5233 50.0667 12.6366 65.2747 22.4087 67.7665ZM26.0643 68.7176C26.0643 68.7176 23.9517 62.4311 29.2837 59.0567C29.2837 59.0567 31.6795 65.7209 26.0643 68.7176ZM34.7915 48.2427C34.7915 48.2427 34.9738 42.2038 28.6847 42.2038C22.3957 42.2038 22.0246 40.7055 22.0246 40.7055C22.0246 40.7055 23.5187 52.3891 34.7915 48.2427ZM33.9256 53.7376C33.9256 53.7376 31.5461 49.6693 25.6899 52.464C25.6899 52.464 28.9842 57.4085 33.9256 53.7376ZM36.7674 47.5228C36.7674 47.5228 34.4497 42.2787 38.2648 39.2821C42.0832 36.2854 42.3078 35.3897 42.3078 35.3897C42.3078 35.3897 44.5539 44.5262 36.7674 47.5228ZM34.1502 42.2038C34.1502 42.2038 40.6151 34.8229 32.6821 26.5105C32.6821 26.5105 27.1125 35.7643 34.1502 42.2038ZM20.7518 70.5905C20.7518 70.5905 18.2127 65.2454 10.7192 68.9423C10.7192 68.9423 13.5643 75.3819 20.7518 70.5905ZM78.9126 24.4519C78.9126 24.4519 76.813 18.0124 81.1554 14.1167C85.4979 10.2211 86.5461 7.97688 86.5461 7.97688C86.5461 7.97688 90.7388 19.3609 78.9126 24.4519ZM77.0409 16.2893C77.0409 16.2893 84.2837 10.1657 78.8573 2.79138C78.8573 2.79138 72.0994 7.75213 77.0409 16.2893ZM75.6932 29.696C75.6932 29.696 72.6854 23.9764 67.1613 25.5757C67.1613 25.5757 68.7303 31.5266 75.6932 29.696ZM183.509 78.017C183.509 78.017 193.359 78.157 193.808 65.2714C193.808 65.2714 183.779 65.5711 183.509 78.017ZM179.886 82.6487C184.066 76.7043 192.825 84.3099 196.803 81.8996C196.204 85.121 185.875 91.339 179.886 82.6487ZM179.212 77.1082C179.212 77.1082 184.765 74.8184 181.771 67.1802C181.771 67.1802 175.469 70.141 179.212 77.1082ZM102.715 48.7215C100.683 41.2266 106.208 40.51 107.877 35.4646C107.877 35.4646 112.295 47.9723 102.715 48.7215ZM177.939 62.6526C177.939 62.6526 175.84 51.4315 187.48 48.728C187.48 48.728 190.514 59.2065 177.939 62.6526ZM175.934 59.0534C175.934 59.0534 179.287 50.3696 169.482 47.0733C169.482 47.0733 166.787 57.2587 175.934 59.0534ZM179.922 38.116C179.922 38.116 173.001 42.878 177.64 51.7181C177.64 51.7181 184.528 45.9496 179.922 38.116ZM19.7459 84.4207C19.7459 84.4207 14.0884 74.7858 2.2622 84.222C2.2622 84.222 10.7974 92.0133 19.7459 84.4207ZM19.3293 87.2935C19.3293 87.2935 10.0324 87.0623 8.65543 99.6873C8.65543 99.6873 21.0513 98.5277 19.3293 87.2935ZM7.94905 89.9905C7.94905 89.9905 0.764806 88.8668 1.06429 98.4528C1.06429 98.4528 8.25179 98.1531 7.94905 89.9905ZM22.9881 83.0233C22.9881 83.0233 16.328 82.0494 17.7472 74.2614C17.7472 74.2614 23.7368 75.46 22.9881 83.0233ZM177.265 89.2804C182.357 88.5313 189.095 88.9808 191.038 100.664C191.038 100.664 176.819 100.814 177.265 89.2804ZM189.437 89.769C189.437 89.769 191.094 96.7721 199.088 95.5311C199.088 95.5311 196.79 87.5834 189.437 89.769ZM161.64 96.847C161.64 96.847 170.53 94.2249 172.702 102.313C172.702 102.313 163.346 103.886 161.64 96.847ZM23.8931 98.417C23.701 98.329 19.4399 98.1531 20.563 104.146C20.563 104.146 25.2798 103.772 23.8931 98.417ZM65.4686 65.7437C65.4686 65.7437 65.9243 59.7309 58.8117 60.555C58.8117 60.555 58.9614 68.571 65.4686 65.7437ZM67.7212 62.8774C67.7212 62.8774 71.0871 56.7375 66.673 54.1155C66.673 54.1155 62.2557 59.5843 67.7212 62.8774ZM8.46988 59.0436C8.46988 59.0436 15.5467 58.3075 16.5233 65.7242C16.5233 65.7242 9.48551 66.9978 8.46988 59.0436ZM3.06624 73.1767C3.06624 73.1767 11.8065 69.5449 14.5767 77.4079C14.5767 77.4079 6.7902 79.8052 3.06624 73.1767ZM122.588 11.0484C122.588 11.0484 124.958 4.76851 115.915 1.54386C115.915 1.54386 114.355 9.32862 122.588 11.0484ZM137.633 32.4712C138.069 32.7122 146.689 34.9434 149.385 25.8037C149.385 25.8037 140.55 22.3575 137.633 32.4712ZM136.361 30.7481C136.361 30.7481 139.43 25.2793 137.109 21.9829C137.109 21.9829 132.692 26.0317 136.361 30.7481ZM141.901 23.2565C141.901 23.2565 150.423 20.6214 147.809 11.9018C147.809 11.9018 138.157 13.9702 141.901 23.2565ZM159.857 42.8617C159.857 42.8617 164.206 32.5461 154.775 28.5006C154.775 28.5006 148.786 40.484 159.857 42.8617ZM163.157 41.6826C163.157 41.6826 161.159 31.2074 173.834 31.2791C173.834 31.2791 174.085 41.5328 163.157 41.6826ZM163.008 32.3963C163.008 32.3963 167.786 28.0283 164.124 22.4976C164.124 22.4976 158.665 26.5528 163.008 32.3963ZM100.709 41.8325C100.709 41.8325 104.892 38.5622 100.065 32.9858C100.065 32.9858 96.3149 40.0084 100.709 41.8325ZM101.787 20.9243C101.787 20.9243 101.66 17.2306 105.752 14.892C105.752 14.892 106.868 20.4586 101.787 20.9243ZM57.1287 73.8542C57.1287 73.8542 61.7349 68.9456 57.6203 64.6786C57.6203 64.6786 53.1639 68.4212 57.1287 73.8542ZM55.8234 75.8379C55.8234 75.8379 55.7485 73.4406 53.089 72.7305C53.089 72.7305 52.9784 76.2874 55.8234 75.8379ZM59.0037 74.3786C59.0037 74.3786 58.6294 71.4569 61.5103 70.483C61.5103 70.483 61.66 73.4796 59.0037 74.3786ZM145.758 81.0429C145.475 80.8279 142.877 72.7305 151.709 69.584C151.709 69.584 155.377 77.0724 145.758 81.0429ZM147.405 84.3392C147.405 84.3392 149.499 78.9453 154.066 79.6814C154.066 79.6814 153.542 85.7301 147.405 84.3392ZM160.205 63.9295C160.462 63.8285 165.032 59.2488 162.187 54.5291C162.187 54.5291 156.497 58.2749 160.205 63.9295ZM162.637 65.0923C162.637 65.0923 162.262 61.0827 166.006 59.3596C166.006 59.3596 167.35 63.3301 162.637 65.0923ZM159.417 67.1509C159.417 67.1509 159.443 62.6136 154.554 62.6559C154.554 62.6559 153.805 68.0499 159.417 67.1509ZM161.588 48.1254C161.963 47.9007 162.936 43.1842 168.626 43.6304C168.626 43.6304 166.605 49.7736 161.588 48.1254ZM144.189 49.4609C144.189 49.4609 151.152 41.5295 146.471 35.6209C146.471 35.6209 136.829 42.0605 144.189 49.4609ZM147.441 49.8485C147.441 49.8485 147.067 44.4578 151.784 42.51C151.784 42.51 152.458 48.1254 147.441 49.8485ZM40.0291 34.1194C40.0291 34.1194 44.8208 28.5788 41.4517 22.2859C41.4517 22.2859 35.6867 27.3802 40.0291 34.1194ZM24.6645 34.5526C24.6645 34.5526 29.2511 34.1194 29.8501 39.0638C29.8501 39.0638 25.1333 40.1126 24.6645 34.5526ZM22.5877 54.5682C22.5877 54.5682 23.3364 46.4023 18.6229 44.7933C18.6229 44.7933 15.8136 50.6367 22.5877 54.5682ZM38.0825 52.4315C38.0825 52.4315 37.7082 48.0896 42.2752 47.4903C42.2752 47.4903 43.6978 51.9852 38.0825 52.4315ZM52.9035 44.4936C52.9035 44.4936 52.9035 37.3798 45.0454 37.0802C45.0454 37.0802 45.869 45.5424 52.9035 44.4936ZM57.8449 39.1778C57.8449 39.1778 58.255 32.3083 63.8345 30.7872C63.8345 30.7872 65.1821 37.3049 57.8449 39.1778ZM73.4894 12.6999C73.4894 12.6999 73.5773 6.01603 67.0018 6.15609C67.0018 6.15609 66.4549 12.8139 73.4894 12.6999ZM96.7316 23.5594C96.7316 23.5594 98.0793 16.5955 88.2746 16.8952C88.2746 16.8952 89.5474 24.9861 96.7316 23.5594ZM88.8735 25.2825C88.8735 25.2825 95.7583 24.3868 95.0129 29.0283C95.0129 29.0283 90.0715 30.0771 88.8735 25.2825ZM80.6379 28.8036C80.6379 28.8036 80.5662 24.6832 84.8306 24.0871C84.8306 24.0871 85.4295 28.7287 80.6379 28.8036ZM67.8416 31.8002C67.8416 31.8002 73.203 29.4518 76.0741 35.546C76.0806 35.5362 70.0845 38.7251 67.8416 31.8002ZM67.2427 37.1193C67.2427 37.1193 58.9842 38.826 60.0552 47.3795C60.0552 47.3795 67.6919 46.5554 67.2427 37.1193ZM47.3306 46.7802C47.3306 46.7802 53.395 45.8063 53.6196 51.8745C53.6196 51.8745 47.5552 52.6236 47.3306 46.7802ZM70.3091 38.243C70.3091 38.243 74.0949 38.6795 73.7563 42.1354C73.7563 42.1354 70.5369 42.6598 70.3091 38.243ZM143.258 53.7962C143.258 53.7962 143.763 47.6271 136.93 47.3893C136.93 47.3893 136.81 53.7018 143.258 53.7962ZM144.378 59.77C144.378 59.77 141.719 51.9917 133.278 55.3271C133.278 55.3271 136.478 63.0761 144.378 59.77ZM138.428 39.6273C138.428 39.6273 138.607 34.0575 143.994 33.3376C143.994 33.3376 144.58 38.5948 138.428 39.6273ZM110.654 10.7195C110.654 10.7195 105.006 17.0092 108.935 23.3868C108.935 23.3868 116.305 19.9765 110.654 10.7195ZM100.514 55.731C100.514 55.731 102.311 50.2654 93.5545 48.9918C93.5545 48.9918 93.5545 56.4053 100.514 55.731ZM83.3527 56.7603C83.4666 56.8352 90.7453 57.3987 90.5955 46.5392C90.5955 46.5392 82.6626 47.5131 83.3527 56.7603ZM80.9406 56.5747C80.9406 56.5747 83.1769 51.8582 80.9406 48.8583C80.9406 48.8583 76.673 53.1285 80.9406 56.5747ZM82.8872 59.9068C82.8872 59.9068 84.1958 57.0991 88.1281 56.9134C88.1281 56.9134 87.005 60.6201 82.8872 59.9068ZM105.195 53.5748C105.195 53.5748 104.362 48.2003 110.664 47.3665C110.664 47.3665 110.107 53.4836 105.195 53.5748ZM136.855 8.4166C136.855 8.4166 131.211 12.2862 134.534 19.3511C134.534 19.3511 140.898 16.4294 136.855 8.4166ZM159.388 27.214C159.388 27.214 160.96 19.1264 152.874 17.0287C152.874 17.0287 151.601 25.491 159.388 27.214ZM111.784 28.7873C111.784 28.7873 108.581 37.6469 117.327 39.9954C117.327 39.9954 120.765 33.0575 111.784 28.7873ZM103.597 83.0885C103.597 83.0885 97.578 72.7891 105.338 66.6134C105.338 66.6134 111.986 73.8998 103.597 83.0885ZM110.423 77.2808C110.423 77.2808 114.629 74.7076 113.916 70.8185C113.916 70.8185 109.629 71.5709 110.423 77.2808ZM110.01 70.8185C110.01 70.8185 115.68 69.8511 112.711 61.5094C112.711 61.5094 106.162 64.975 110.01 70.8185ZM71.9823 77.5577C71.9823 77.5577 77.6528 76.5936 74.6873 68.2518C74.6873 68.2518 68.1379 71.7142 71.9823 77.5577ZM63.1932 80.0462C63.1932 80.0462 59.4888 77.1375 55.0682 81.8898C55.0682 81.8898 59.9445 85.2773 63.1932 80.0462ZM65.1724 80.3263C65.1724 80.3263 62.9035 81.095 62.9946 83.8441C62.9946 83.8441 66.4289 82.9191 65.1724 80.3263ZM116.898 42.3373C116.898 42.3373 115.003 39.5589 111.325 40.7185C111.325 40.7185 113.87 45.0148 116.898 42.3373ZM189.863 78.3818C189.863 78.3818 196.042 81.0462 198.652 75.7174C198.652 75.7174 193.613 72.8054 189.863 78.3818ZM26.2336 98.4528C26.2336 98.4528 31.647 99.9381 29.6711 106.241C29.6711 106.241 24.8403 104.635 26.2336 98.4528ZM24.0754 95.0653C24.0754 95.0653 21.2629 93.4757 18.5838 96.0457C18.5838 96.0457 22.604 98.6612 24.0754 95.0653ZM158.909 100.049C158.909 100.049 164.323 101.537 162.35 107.84C162.35 107.84 157.516 106.234 158.909 100.049ZM30.1626 69.4374C30.1626 69.4374 33.2095 68.356 33.0304 64.6493C33.0304 64.6493 28.4178 65.9685 30.1626 69.4374ZM139.691 75.333C139.691 75.333 143.027 80.4729 140.143 84.4435C140.143 84.4435 135.742 81.3068 139.691 75.333ZM120.026 40.2201C120.026 40.2201 118.291 36.3473 121.972 33.1552C121.972 33.1552 124.902 38.7348 120.026 40.2201ZM29.632 74.9226C29.632 74.9226 26.2563 73.0139 23.0435 76.0952C23.0435 76.0952 27.8677 79.2352 29.632 74.9226ZM41.1619 66.8447C41.1619 66.8447 37.7863 64.9392 34.5734 68.0173C34.5734 68.0173 39.3976 71.1572 41.1619 66.8447ZM43.4731 68.5906C43.4731 68.5906 38.9419 68.6101 37.464 73.6034C37.464 73.6034 44.1795 73.9943 43.4731 68.5906ZM41.3963 59.2554C41.3963 59.2554 45.9699 56.8059 44.798 50.969C44.798 50.969 37.7961 54.1676 41.3963 59.2554ZM105.058 57.0111C105.058 57.0111 106.237 54.3011 109.775 54.4021C109.775 54.4021 108.763 58.0274 105.058 57.0111ZM101.214 48.9593C101.214 48.9593 102.337 43.4741 98.3722 42.1256C94.4041 40.7771 94.5539 40.1029 94.5539 40.1029C94.5539 40.1029 92.0083 48.1906 101.214 48.9593Z" fill="white"/>
</g>
<path fill-rule="evenodd" clip-rule="evenodd" d="M90.6445 113.869C90.4753 101.775 81.6406 96.4661 74.1862 95.0167C82.2461 97.7625 89.3457 105.332 90.6445 113.869ZM80.6901 85.2157C84.5117 86.6 88.9551 89.1048 92.6204 100.235C93.1055 96.3652 89.4694 86.9876 80.6901 85.2157ZM76.9043 155.454C88.9681 146.276 95.179 138.305 96.4714 121.045C98.0176 139.647 91.4746 147.706 76.9043 155.454ZM58.7109 148.705C84.0234 148.732 95.6217 125.762 91.5202 104.342C98.8704 126.452 84.8665 153.126 58.7109 148.705ZM103.844 103.166H104.18C105.592 98.7429 108.076 91.3099 110.999 86.3036C106.146 91.2546 104.398 99.5507 103.844 103.166ZM98.5156 103.166H98.6361C99.3099 100.499 101.644 88.9517 94.1667 80.4438C94.1667 80.4438 99.2871 88.8768 98.5156 103.166Z" fill="white"/>
</g>
<g clip-path="url(#clip1_3223_250)">
<path d="M421 58.2407H230V124H421V58.2407Z" fill="#273A2E"/>
<path d="M299.283 81.3876H298.077V80.9224H313.249V81.3876H312.042C310.842 81.3876 309.892 81.7107 309.193 82.344C308.506 82.9838 308.012 83.8368 307.704 84.9031C307.408 85.9758 307.267 87.1972 307.267 88.5736V108.115C308.769 106.241 310.38 104.354 312.094 102.454C313.82 100.542 315.508 98.6934 317.151 96.8969C318.794 95.1069 320.283 93.4267 321.618 91.8564C322.953 90.2732 324.012 88.8773 324.801 87.6689C325.604 86.4475 326.008 85.4717 326.008 84.748C326.008 83.4038 325.526 82.4991 324.57 82.0339C323.627 81.5557 322.497 81.3101 321.181 81.3101V80.9224H338.536V81.3618C336.822 81.3618 335.083 81.8271 333.324 82.7576C331.559 83.6882 329.788 84.9289 328.01 86.4798C326.226 88.0308 324.442 89.7626 322.645 91.6755C320.848 93.5753 319.051 95.4946 317.254 97.4397L338.87 123.935H334.736L315.072 99.8437C313.512 101.601 312.068 103.249 310.733 104.781C309.411 106.319 308.256 107.669 307.267 108.839V116.283C307.267 117.628 307.408 118.843 307.704 119.928C308.012 121.014 308.506 121.88 309.193 122.513C309.892 123.153 310.842 123.469 312.042 123.469H313.249V123.935H298.077V123.469H299.283C300.464 123.469 301.401 123.153 302.107 122.513C302.807 121.88 303.301 121.014 303.596 119.928C303.904 118.843 304.058 117.628 304.058 116.283V88.5736C304.058 87.1972 303.904 85.9758 303.596 84.9031C303.301 83.8368 302.807 82.9838 302.107 82.344C301.401 81.7107 300.464 81.3876 299.283 81.3876Z" fill="white"/>
<path d="M341.417 123.935V123.469H342.624C343.805 123.469 344.742 123.153 345.448 122.513C346.148 121.88 346.642 121.014 346.937 119.928C347.245 118.843 347.399 117.628 347.399 116.283V88.5736C347.399 87.1972 347.245 85.9758 346.937 84.9031C346.642 83.8368 346.148 82.9838 345.448 82.344C344.742 81.7107 343.805 81.3876 342.624 81.3876H341.417V80.9224H365.729C367.487 80.9224 369.195 81.1292 370.838 81.5427C372.493 81.9434 373.976 82.5508 375.279 83.378C376.595 84.2052 377.628 85.2908 378.385 86.6349C379.136 87.9662 379.515 89.5559 379.515 91.417C379.515 93.2652 379.207 94.829 378.591 96.1214C377.987 97.401 377.179 98.4478 376.152 99.275C375.125 100.089 373.982 100.723 372.737 101.188C371.505 101.64 370.26 101.957 369.015 102.144C367.763 102.338 366.589 102.429 365.498 102.429H360.415L378.591 123.935H374.406L356.23 102.429H350.608V116.283C350.608 117.628 350.749 118.843 351.044 119.928C351.353 121.014 351.847 121.88 352.533 122.513C353.233 123.153 354.183 123.469 355.383 123.469H356.59V123.935H341.417ZM350.608 101.782H364.266C366.525 101.782 368.559 101.42 370.376 100.697C372.205 99.96 373.649 98.8226 374.714 97.2846C375.773 95.7531 376.306 93.795 376.306 91.417C376.306 89.0906 375.773 87.2036 374.714 85.7561C373.649 84.3086 372.205 83.2488 370.376 82.5767C368.559 81.9046 366.525 81.5686 364.266 81.5686H350.608V101.782Z" fill="white"/>
<path d="M384.203 80.9224H420.811V85.1874C418.308 84.0695 415.728 83.2617 413.059 82.7576C410.389 82.26 407.783 81.9434 405.254 81.8012C402.719 81.6461 400.357 81.5686 398.169 81.5686C396.372 81.5686 395.12 82.2342 394.421 83.5589C393.734 84.8708 393.394 86.5445 393.394 88.5736V99.4301H419.528V102.429H393.394V116.283C393.394 118.319 393.734 119.999 394.421 121.324C395.12 122.636 396.372 123.288 398.169 123.288C400.357 123.288 402.719 123.224 405.254 123.082C407.783 122.927 410.389 122.603 413.059 122.099C415.728 121.602 418.308 120.794 420.811 119.67V123.935H384.203V123.495H385.41C386.591 123.495 387.528 123.185 388.234 122.565C388.933 121.931 389.427 121.059 389.723 119.954C390.031 118.855 390.185 117.628 390.185 116.283V88.5736C390.185 86.5445 389.832 84.8514 389.132 83.5072C388.426 82.1631 387.187 81.4587 385.41 81.3876L384.203 81.3618V80.9224Z" fill="white"/>
<path d="M234.727 93.5356C234.727 98.1238 235.4 102.092 236.755 105.452C238.122 108.812 239.97 111.591 242.3 113.775C244.642 115.946 247.306 117.562 250.284 118.609C253.275 119.662 256.4 120.186 259.654 120.186C262.735 120.186 265.841 119.733 268.973 118.816C272.105 117.885 275.057 116.535 277.83 114.757C280.602 112.967 283.073 110.77 285.249 108.166C287.418 105.549 289.132 102.557 290.384 99.1965C291.629 95.8362 292.258 92.1269 292.258 88.0557C292.258 83.3512 291.552 79.2671 290.152 75.8034C288.766 72.3267 286.866 69.464 284.453 67.2216C282.053 64.9857 279.332 63.3055 276.29 62.1811C273.241 61.0631 270.077 60.5009 266.791 60.5009C263.691 60.5009 260.61 60.9662 257.549 61.8967C254.481 62.8273 251.58 64.2102 248.846 66.0325C246.106 67.8613 243.673 70.1037 241.555 72.7532C239.431 75.3898 237.762 78.4593 236.549 81.9554C235.33 85.4385 234.727 89.2964 234.727 93.5356ZM230.542 90.4338C230.542 85.9555 231.396 81.7615 233.109 77.8454C234.816 73.9358 237.172 70.4785 240.169 67.4801C243.179 64.4687 246.664 62.1229 250.618 60.4492C254.584 58.7626 258.845 57.916 263.402 57.916C267.953 57.916 272.208 58.7626 276.161 60.4492C280.128 62.1229 283.613 64.4687 286.61 67.4801C289.62 70.4785 291.982 73.9358 293.695 77.8454C295.402 81.7615 296.262 85.9555 296.262 90.4338C296.262 94.8991 295.402 99.0931 293.695 103.022C291.982 106.951 289.62 110.402 286.61 113.362C283.613 116.328 280.128 118.654 276.161 120.341C272.208 122.008 267.953 122.848 263.402 122.848C258.845 122.848 254.584 122.008 250.618 120.341C246.664 118.654 243.179 116.328 240.169 113.362C237.172 110.402 234.816 106.951 233.109 103.022C231.396 99.0931 230.542 94.8991 230.542 90.4338Z" fill="white"/>
</g>
<path d="M257.274 146.693H255.891V134.671H263.421V135.977H257.274V140.01H263.114V141.277H257.274V146.693Z" fill="white"/>
<path d="M275.383 146.693H273.923L272.77 143.62H266.815L265.662 146.693H264.202L268.736 134.671H270.81L275.383 146.693ZM269.619 136.131L267.276 142.314H272.27L269.965 136.131H269.619Z" fill="white"/>
<path d="M278.122 146.693H276.739V134.671H279.237L282.925 145.157H283.271L286.959 134.671H289.456V146.693H288.073V136.477H287.728L284.116 146.693H282.041L278.43 136.477H278.122V146.693Z" fill="white"/>
<path d="M293.568 146.693H292.185V134.671H293.568V146.693Z" fill="white"/>
<path d="M303.68 146.693H296.304V134.671H297.687V145.387H303.68V146.693Z" fill="white"/>
<path d="M309.778 146.693H308.395V142.161L304.015 134.671H305.475L308.895 140.586H309.24L312.698 134.671H314.158L309.778 142.161V146.693Z" fill="white"/>
<path d="M323.429 147C322.506 147 321.7 146.837 321.008 146.501C320.316 146.174 319.779 145.723 319.394 145.157C319.029 144.6 318.856 143.985 318.856 143.313H320.24C320.24 143.755 320.355 144.158 320.585 144.542C320.835 144.907 321.21 145.195 321.7 145.425C322.18 145.637 322.756 145.733 323.429 145.733C324.427 145.733 325.167 145.541 325.657 145.157C326.166 144.753 326.425 144.225 326.425 143.582C326.425 143.073 326.243 142.651 325.887 142.314C325.551 141.988 325.042 141.758 324.351 141.623L322.045 141.162C320.096 140.807 319.125 139.78 319.125 138.09C319.125 137.427 319.289 136.841 319.625 136.323C319.951 135.814 320.432 135.42 321.046 135.132C321.661 134.825 322.391 134.671 323.236 134.671C324.13 134.671 324.908 134.844 325.58 135.171C326.272 135.478 326.79 135.92 327.155 136.477C327.511 137.043 327.693 137.667 327.693 138.358H326.348C326.348 137.926 326.214 137.533 325.964 137.168C325.705 136.784 325.35 136.496 324.888 136.284C324.427 136.054 323.87 135.939 323.236 135.939C322.362 135.939 321.68 136.15 321.2 136.553C320.739 136.937 320.509 137.456 320.509 138.09C320.509 138.579 320.662 138.992 320.97 139.319C321.296 139.655 321.796 139.876 322.468 139.972L324.351 140.317C325.551 140.548 326.425 140.932 326.963 141.469C327.52 141.988 327.808 142.689 327.808 143.582C327.808 144.254 327.626 144.849 327.271 145.387C326.934 145.906 326.435 146.299 325.772 146.578C325.1 146.856 324.322 147 323.429 147Z" fill="white"/>
<path d="M337.746 146.693H330.024V134.671H337.746V135.977H331.407V140.01H337.401V141.277H331.407V145.387H337.746V146.693Z" fill="white"/>
<path d="M344.175 142.046L348.978 146.693H347.288L342.447 142.046H341.448V146.693H340.064V134.671H345.29C345.924 134.671 346.5 134.844 347.019 135.171C347.528 135.478 347.941 135.92 348.248 136.477C348.555 137.043 348.709 137.667 348.709 138.358C348.709 139.05 348.555 139.684 348.248 140.24C347.941 140.807 347.528 141.258 347.019 141.585C346.5 141.892 345.924 142.046 345.29 142.046H344.175ZM341.448 140.778H345.29C345.847 140.778 346.337 140.567 346.75 140.125C347.153 139.664 347.364 139.079 347.364 138.358C347.364 137.648 347.153 137.072 346.75 136.63C346.337 136.198 345.847 135.977 345.29 135.977H341.448V140.778Z" fill="white"/>
<path d="M356.271 146.693H354.196L349.816 134.671H351.276L355.08 145.233H355.426L359.191 134.671H360.651L356.271 146.693Z" fill="white"/>
<path d="M363.583 146.693H362.2V134.671H363.583V146.693Z" fill="white"/>
<path d="M371.545 147C370.489 147 369.519 146.751 368.625 146.232C367.751 145.723 367.06 144.993 366.551 144.043C366.032 143.102 365.782 142.036 365.782 140.855C365.782 139.655 366.032 138.579 366.551 137.629C367.06 136.688 367.751 135.958 368.625 135.44C369.519 134.931 370.489 134.671 371.545 134.671C372.852 134.671 373.975 135.036 374.926 135.747C375.868 136.467 376.521 137.456 376.886 138.704H375.426C375.118 137.84 374.619 137.158 373.927 136.669C373.236 136.188 372.439 135.939 371.545 135.939C370.748 135.939 370.018 136.15 369.355 136.553C368.683 136.966 368.145 137.542 367.742 138.282C367.357 139.031 367.165 139.885 367.165 140.855C367.165 141.806 367.357 142.651 367.742 143.39C368.145 144.139 368.683 144.715 369.355 145.118C370.018 145.531 370.748 145.733 371.545 145.733C372.439 145.733 373.236 145.493 373.927 145.003C374.619 144.494 375.118 143.793 375.426 142.891H376.886C376.521 144.177 375.868 145.185 374.926 145.925C373.975 146.645 372.852 147 371.545 147Z" fill="white"/>
<path d="M386.569 146.693H378.846V134.671H386.569V135.977H380.229V140.01H386.223V141.277H380.229V145.387H386.569V146.693Z" fill="white"/>
<path d="M392.844 147C391.922 147 391.115 146.837 390.424 146.501C389.732 146.174 389.194 145.723 388.81 145.157C388.445 144.6 388.272 143.985 388.272 143.313H389.655C389.655 143.755 389.77 144.158 390.001 144.542C390.251 144.907 390.625 145.195 391.115 145.425C391.595 145.637 392.172 145.733 392.844 145.733C393.843 145.733 394.583 145.541 395.072 145.157C395.582 144.753 395.841 144.225 395.841 143.582C395.841 143.073 395.658 142.651 395.303 142.314C394.967 141.988 394.458 141.758 393.766 141.623L391.461 141.162C389.511 140.807 388.541 139.78 388.541 138.09C388.541 137.427 388.704 136.841 389.04 136.323C389.367 135.814 389.847 135.42 390.462 135.132C391.077 134.825 391.807 134.671 392.652 134.671C393.545 134.671 394.323 134.844 394.996 135.171C395.687 135.478 396.206 135.92 396.571 136.477C396.926 137.043 397.109 137.667 397.109 138.358H395.764C395.764 137.926 395.63 137.533 395.38 137.168C395.12 136.784 394.765 136.496 394.304 136.284C393.843 136.054 393.286 135.939 392.652 135.939C391.778 135.939 391.096 136.15 390.616 136.553C390.155 136.937 389.924 137.456 389.924 138.09C389.924 138.579 390.078 138.992 390.385 139.319C390.712 139.655 391.211 139.876 391.884 139.972L393.766 140.317C394.967 140.548 395.841 140.932 396.379 141.469C396.936 141.988 397.224 142.689 397.224 143.582C397.224 144.254 397.041 144.849 396.686 145.387C396.35 145.906 395.85 146.299 395.188 146.578C394.515 146.856 393.737 147 392.844 147Z" fill="white"/>
<defs>
<clipPath id="clip0_3223_250">
<rect width="200" height="202" fill="white"/>
</clipPath>
<clipPath id="clip1_3223_250">
<rect width="191" height="67" fill="white" transform="translate(230 57)"/>
</clipPath>
</defs>
</svg>
