<?xml version="1.0" standalone="no"?>
<!DOCTYPE svg PUBLIC "-//W3C//DTD SVG 20010904//EN"
 "http://www.w3.org/TR/2001/REC-SVG-20010904/DTD/svg10.dtd">
<svg version="1.0" xmlns="http://www.w3.org/2000/svg"
 width="1024.000000pt" height="1024.000000pt" viewBox="0 0 1024.000000 1024.000000"
 preserveAspectRatio="xMidYMid meet">

<g transform="translate(0.000000,1024.000000) scale(0.100000,-0.100000)" stroke="none">
<path fill="#fff" d="M0 5120 l0 -5120 5120 0 5120 0 0 5120 0 5120 -5120 0 -5120 0 0
-5120z m5496 4530 c1255 -118 2391 -778 3062 -1781 344 -515 584 -1172 647
-1774 3 -27 10 -90 15 -140 13 -117 13 -564 0 -680 -5 -49 -12 -115 -15 -145
-51 -488 -242 -1075 -494 -1515 -511 -891 -1314 -1548 -2284 -1870 -447 -149
-824 -207 -1322 -207 -479 1 -894 71 -1335 225 -572 200 -1091 519 -1521 934
-566 549 -948 1229 -1128 2013 -105 454 -128 979 -66 1465 68 523 263 1079
538 1535 669 1109 1864 1823 3252 1943 96 8 551 6 651 -3z"/>
<path fill="#273A2E" d="M6942 7988 c-9 -9 -12 -224 -12 -906 l0 -894 53 -49 52 -49 140 0
c97 0 145 4 153 12 17 17 17 1869 0 1886 -8 8 -66 12 -193 12 -127 0 -185 -4
-193 -12z"/>
<path fill="#273A2E" d="M6372 7608 c-9 -9 -12 -159 -12 -615 l0 -603 28 0 c64 0 233 -46 344
-94 21 -9 39 -16 40 -16 2 0 2 295 0 657 -2 462 -6 660 -13 670 -15 18 -369
19 -387 1z"/>
<path fill="#273A2E" d="M2870 7191 c-74 -23 -127 -69 -159 -141 -20 -45 -21 -57 -21 -1607
l0 -1563 943 0 c1073 0 989 7 1038 -86 l25 -49 457 -3 457 -2 22 47 c13 27 38
58 57 70 l34 23 923 0 924 0 0 943 c0 720 -3 946 -12 955 -8 8 -47 12 -108 12
-61 0 -100 -4 -108 -12 -9 -9 -12 -209 -12 -840 l0 -828 -2190 0 -2190 0 0
1435 0 1435 1334 0 c1207 0 1334 2 1340 16 3 9 6 51 6 94 0 43 -3 85 -6 94 -6
15 -135 16 -1368 15 -748 0 -1372 -4 -1386 -8z"/>
<path fill="#273A2E" d="M5802 7088 c-9 -9 -12 -116 -12 -419 l0 -407 58 28 c74 37 188 74
280 90 l72 13 0 342 c0 252 -3 344 -12 353 -8 8 -66 12 -193 12 -127 0 -185
-4 -193 -12z"/>
<path fill="#273A2E" d="M3345 6555 c-39 -38 -27 -88 31 -126 28 -18 55 -19 840 -19 l811 0
21 23 c12 13 22 36 22 51 0 34 -24 82 -45 90 -9 3 -385 6 -836 6 l-820 0 -24
-25z"/>
<path fill="#273A2E" d="M6148 6220 c-289 -52 -556 -276 -657 -550 -56 -150 -70 -345 -37
-497 92 -427 469 -722 891 -700 175 9 334 68 476 175 478 363 459 1091 -38
1433 -60 42 -195 104 -268 124 -70 19 -296 28 -367 15z m220 -407 c6 -9 12
-31 12 -49 0 -30 3 -32 43 -38 90 -14 137 -69 103 -121 -21 -31 -58 -41 -106
-26 -72 22 -182 10 -202 -22 -13 -20 -9 -84 6 -96 8 -7 62 -21 120 -31 121
-22 155 -37 190 -83 36 -47 48 -84 49 -157 1 -108 -63 -197 -158 -221 -43 -11
-45 -13 -45 -49 0 -30 -6 -43 -26 -59 -34 -26 -54 -26 -88 0 -19 15 -26 30
-26 55 0 19 -6 36 -12 38 -134 36 -188 68 -188 111 0 32 37 75 64 75 13 0 49
-11 80 -25 61 -27 126 -32 189 -14 30 8 42 18 54 46 17 41 11 94 -13 113 -8 7
-53 19 -101 27 -47 7 -105 22 -127 32 -89 39 -138 139 -115 239 18 84 68 139
142 157 23 6 27 12 27 44 1 38 14 63 40 74 24 10 74 -2 88 -20z"/>
<path fill="#273A2E" d="M3364 6192 c-40 -26 -44 -99 -8 -133 l26 -24 819 -3 820 -2 25 25
c21 21 25 32 20 58 -3 18 -15 43 -25 57 l-18 25 -824 2 c-453 2 -829 -1 -835
-5z"/>
<path fill="#273A2E" d="M2324 3725 c-13 -20 -15 -40 -11 -88 11 -120 48 -189 131 -246 95
-66 -95 -61 2702 -59 l2539 3 55 26 c78 37 114 71 149 141 27 53 31 72 31 143
0 50 -5 86 -12 93 -9 9 -263 12 -1079 12 l-1068 0 -23 -42 c-30 -55 -76 -85
-141 -93 -29 -3 -248 -5 -487 -3 -419 3 -436 4 -475 24 -27 14 -47 35 -64 67
l-24 47 -1103 0 -1104 0 -16 -25z"/>
</g>
</svg>
